<?xml version="1.0" encoding="utf-8"?>
<!-- Generator: Adobe Illustrator 26.0.1, SVG Export Plug-In . SVG Version: 6.00 Build 0)  -->
<svg version="1.1" id="Layer_1" xmlns="http://www.w3.org/2000/svg" xmlns:xlink="http://www.w3.org/1999/xlink" x="0px" y="0px"
	 viewBox="0 0 198.3 161" style="enable-background:new 0 0 198.3 161;" xml:space="preserve">
<style type="text/css">
	.st0{fill:none;stroke:#FFFFFF;stroke-width:2;stroke-miterlimit:10;}
	.st1{display:none;}
	.st2{display:inline;}
	.st3{fill:none;stroke:#E9AB00;stroke-width:2;stroke-miterlimit:10;}
</style>
<image style="display:none;overflow:visible;enable-background:new    ;" width="226" height="226" xlink:href="9B89482E.png"  transform="matrix(0.9956 0 0 0.9956 -11.48 -30.14)">
</image>
<path class="st0" d="M51.9,101.5c0,0.5,8.3,2.1,19.7,0.9c7.1-0.8,19.4-2.1,20.7-7.2c0.9-3.5-3.6-8.2-8.8-9.9c-0.9-0.3-6-2.1-9.8,0
	c-2.1,1.1-3,2.9-4.7,6.3c-2,4-1.3,4.8-2.6,6.3C62.6,102.7,51.9,101,51.9,101.5z"/>
<path class="st0" d="M153.9,3.3c-7-1.1-13.8,8.3-17.2,13C113.6,48,86,79.9,86,79.9l0,0c2.6,2.3,5.2,4.5,7.8,6.8
	c19.9-19.9,39.8-39.9,59.7-59.8c7.2-5.1,9.8-13,7.2-18.2C160.5,8.4,158.3,4,153.9,3.3z"/>
<polygon class="st0" points="111.4,36.2 13.1,36.2 13.1,118.2 183.3,120 183.3,36.2 155.3,36.2 163.6,28.1 190.5,28.1 195.7,33 
	195.7,129.5 190.5,137.6 7.9,137.6 2.2,130.4 2.2,33.5 7.9,28.1 118.1,28.1 "/>
<polygon class="st0" points="78.3,144.8 78.3,152.9 69.5,161 126.7,161 119.1,152.9 119.1,144.8 "/>
<g id="Layer_2_00000161607012341430793180000008747665600115157677_" class="st1">
	<g class="st2">
		<polygon class="st3" points="164.3,38 37.6,38 34.4,42.3 34.4,122.6 38.7,126.9 164.3,126.9 168.3,121.9 168.3,42.3 		"/>
		<polygon class="st3" points="115.4,132.7 85.8,132.7 85.8,140.3 80.1,146 121.1,146 115.4,139.4 		"/>
	</g>
</g>
</svg>
