<?xml version="1.0" encoding="utf-8"?>
<!-- Generator: Adobe Illustrator 26.0.1, SVG Export Plug-In . SVG Version: 6.00 Build 0)  -->
<svg version="1.1" id="Layer_1" xmlns="http://www.w3.org/2000/svg" xmlns:xlink="http://www.w3.org/1999/xlink" x="0px" y="0px"
	 viewBox="0 0 200 164" style="enable-background:new 0 0 200 164;" xml:space="preserve">
<style type="text/css">
	.st0{fill:none;stroke:#FBFBFB;stroke-width:2;stroke-miterlimit:10;}
	.st1{display:none;fill:#231F20;stroke:#FBFBFB;stroke-miterlimit:10;}
</style>
<g id="Layer_1_00000136376922644793025370000004813886305201460623_">
	
		<image style="display:none;overflow:visible;enable-background:new    ;" width="1304" height="1371" xlink:href="55979C7B.jpg"  transform="matrix(1.0621 0 0 1.1168 -376.3754 -683.5959)">
	</image>
	<polygon class="st0" points="32.5,74.3 34.7,76.6 68.4,76.6 70.6,74.9 70.6,38.5 68.4,36.2 34.3,36.2 32.5,39.8 	"/>
	<polygon class="st0" points="91.9,36.2 89.3,38.1 90.6,41.4 93.7,42.6 166,42.6 167.9,39.4 166,36.2 	"/>
	<polygon class="st0" points="93,49.4 89.3,53 95.2,56.4 144.2,56.4 147.5,52.9 145.3,49.4 	"/>
	<polygon class="st0" points="157.5,48.1 153.8,51.2 157.2,54.6 166.8,54.6 169.7,51.4 167.5,48.1 	"/>
	<polygon class="st0" points="91.5,64.3 89.3,67.8 91.5,70.4 165.3,70.4 167.9,67.3 164.2,64.3 	"/>
	<polygon class="st0" points="70.4,93.9 40.3,104.9 40.3,109.7 40.3,112.9 70.4,123.9 75.6,121.6 75.6,115.8 58,108.9 75.6,102 
		75.6,96.5 	"/>
	<polygon class="st0" points="98.5,77.8 81.1,133.3 83,136.4 87.1,135.3 104.5,81.6 102.9,77.8 	"/>
	<polygon class="st0" points="123,93.9 150.8,104.2 153.8,106.5 153.8,110.5 151.9,112.9 123,123.9 118.4,121 118.4,115.8 
		136.1,108.9 118.4,101.7 118.4,96.5 	"/>
	<path class="st0" d="M93,56.4"/>
	<rect x="-141.4" y="-292.8" class="st1" width="1050.7" height="858.7"/>
	<g>
		<polygon class="st0" points="183.7,25.8 13.6,25.8 9.3,31.1 9.3,131.1 15.1,136.4 183.7,136.4 189,130.2 189,31.1 		"/>
		<polygon class="st0" points="118,143.6 78.4,143.6 78.4,153 70.6,160.2 125.7,160.2 118,151.9 		"/>
	</g>
</g>
</svg>
