<?xml version="1.0" encoding="utf-8"?>
<!-- Generator: Adobe Illustrator 26.0.1, SVG Export Plug-In . SVG Version: 6.00 Build 0)  -->
<svg version="1.1" id="Layer_1" xmlns="http://www.w3.org/2000/svg" xmlns:xlink="http://www.w3.org/1999/xlink" x="0px" y="0px"
	 viewBox="0 0 198.7 161.3" style="enable-background:new 0 0 198.7 161.3;" xml:space="preserve">
<style type="text/css">
	.st0{fill:none;stroke:#FFFFFF;stroke-width:2;stroke-miterlimit:10;}
</style>
<image style="display:none;overflow:visible;enable-background:new    ;" width="626" height="626" xlink:href="FA5F0C0.jpeg"  transform="matrix(1 0 0 1 -52.52 50.16)">
</image>
<polygon class="st0" points="118,52.4 114.2,47.6 108.1,52.4 113.1,57.5 110.8,63.4 104.7,63.4 104.7,70.7 111.4,70.7 113.2,74 
	113.4,76.6 108.5,80 113.2,86.3 118,81.5 120.7,83 122.9,83 121.9,89.9 130.1,89.9 130.1,83.9 132.7,83.2 134.4,81.3 138.6,86.1 
	144.2,81.7 140,77.1 141,73.8 141,71.6 148.2,71.2 148.2,63.2 142.2,63 141.2,60.1 140,57.3 144.6,53.8 139.8,48.3 136.2,51.6 
	134.9,53.3 132.3,51.4 129.9,49.6 130.6,43.8 122.8,43 123.3,49.1 "/>
<path class="st0" d="M126.8,55.7c3.5,0.2,5.7,2.6,6.3,3.3c0.4,0.5,4,4.6,2.7,9.7c-0.9,3.9-4,5.7-4.8,6.2c-0.3,0.2-5.9,3.5-10.4,0.2
	c-2.7-2-3.4-5.3-3.6-6.4c-0.2-0.8-1-5.3,1.9-9.2C119.2,59.1,122.2,55.4,126.8,55.7z"/>
<polygon class="st0" points="73.5,38.2 70.3,34.4 65.2,38.2 69.3,42.3 67.5,47 62.3,47 62.3,52.8 67.9,52.8 69.5,55.4 69.6,57.5 
	65.5,60.2 69.5,65.2 73.5,61.4 75.8,62.6 77.6,62.6 76.8,68.1 83.6,68.1 83.6,63.3 85.8,62.7 87.2,61.2 90.8,65 95.5,61.5 92,57.9 
	92.8,55.3 92.8,53.5 98.8,53.2 98.8,46.8 93.8,46.7 92.9,44.3 92,42.1 95.8,39.4 91.8,35 88.8,37.6 87.6,38.9 85.5,37.5 83.5,36 
	84.1,31.3 77.5,30.8 77.9,35.6 "/>
<path class="st0" d="M126.8,56.4c3.5,0.2,5.7,2.6,6.3,3.3c0.4,0.5,4,4.6,2.7,9.7c-0.9,3.9-4,5.7-4.8,6.2c-0.3,0.2-5.9,3.5-10.4,0.2
	c-2.7-2-3.4-5.3-3.6-6.4c-0.2-0.8-1-5.3,1.9-9.2C119.2,59.8,122.2,56.1,126.8,56.4z"/>
<path class="st0" d="M80.8,40.8c2.9,0.2,4.8,2,5.3,2.6c0.4,0.4,3.3,3.6,2.3,7.7c-0.8,3.1-3.3,4.6-4,5c-0.2,0.2-5,2.8-8.7,0.2
	c-2.3-1.6-2.8-4.3-3-5.1c-0.1-0.6-0.8-4.2,1.6-7.3C74.5,43.5,77,40.6,80.8,40.8z"/>
<path class="st0" d="M80.8,41.4c2.9,0.2,4.8,2,5.3,2.6c0.4,0.4,3.3,3.6,2.3,7.7c-0.8,3.1-3.3,4.6-4,5c-0.2,0.2-5,2.8-8.7,0.2
	c-2.3-1.6-2.8-4.3-3-5.1c-0.1-0.6-0.8-4.2,1.6-7.3C74.5,44.2,77,41.2,80.8,41.4z"/>
<polygon class="st0" points="81.4,85.4 78.9,82.6 74.8,85.4 78.1,88.6 76.6,92.1 72.5,92.1 72.5,96.6 77,96.6 78.2,98.6 78.3,100.1 
	75,102.2 78.2,106 81.4,103.1 83.2,104 84.7,104 84,108.2 89.5,108.2 89.5,104.6 91.2,104.1 92.4,103 95.2,105.9 99,103.2 
	96.2,100.4 96.8,98.4 96.8,97.1 101.7,96.9 101.7,92 97.7,91.9 97,90.1 96.2,88.4 99.2,86.3 96,83 93.7,85 92.7,86 91,84.9 
	89.4,83.8 89.9,80.2 84.6,79.8 85,83.4 "/>
<path class="st0" d="M87.3,87.4c2.3,0.1,3.8,1.6,4.2,2c0.3,0.3,2.7,2.8,1.8,5.9c-0.6,2.3-2.7,3.5-3.2,3.8c-0.2,0.1-4,2.1-7,0.1
	c-1.8-1.2-2.3-3.2-2.4-3.9c-0.1-0.5-0.7-3.2,1.3-5.6C82.2,89.5,84.2,87.3,87.3,87.4z"/>
<path class="st0" d="M87.3,87.9c2.3,0.1,3.8,1.6,4.2,2c0.3,0.3,2.7,2.8,1.8,5.9c-0.6,2.3-2.7,3.5-3.2,3.8c-0.2,0.1-4,2.1-7,0.1
	c-1.8-1.2-2.3-3.2-2.4-3.9c-0.1-0.5-0.7-3.2,1.3-5.6C82.2,90,84.2,87.7,87.3,87.9z"/>
<g>
	<polygon class="st0" points="179.6,16.1 20.1,16.1 16.1,21.3 16.1,117.7 21.5,122.8 179.6,122.8 184.5,116.8 184.5,21.3 	"/>
	<polygon class="st0" points="118,129.8 80.8,129.8 80.8,138.8 73.6,145.7 125.2,145.7 118,137.7 	"/>
</g>
</svg>
