<?xml version="1.0" encoding="utf-8"?>
<!-- Generator: Adobe Illustrator 26.0.1, SVG Export Plug-In . SVG Version: 6.00 Build 0)  -->
<svg version="1.1" id="Layer_1" xmlns="http://www.w3.org/2000/svg" xmlns:xlink="http://www.w3.org/1999/xlink" x="0px" y="0px"
	 viewBox="0 0 200 164" style="enable-background:new 0 0 200 164;" xml:space="preserve">
<style type="text/css">
	.st0{fill:none;stroke:#FFFFFF;stroke-width:2;stroke-miterlimit:10;}
</style>
<image style="display:none;overflow:visible;enable-background:new    ;" width="1600" height="1700" xlink:href="C9B4450B.jpeg"  transform="matrix(0.3854 0 0 0.507 -189.2011 -342.8698)">
</image>
<g>
	<polygon class="st0" points="183.3,18.4 20.8,18.4 16.6,23.6 16.6,120.3 22.2,125.5 183.3,125.5 188.4,119.5 188.4,23.6 	"/>
	<polygon class="st0" points="120.5,132.5 82.7,132.5 82.7,141.6 75.3,148.5 127.9,148.5 120.5,140.5 	"/>
</g>
<path class="st0" d="M102.9,31.4c-3.2,0.2-4.7,2.4-5.1,3.7c-0.7,2.4,1.5,5.3,4.5,5.5c3.5,0.3,8.4-3,7.2-5.9
	C108.9,33.1,106,31.2,102.9,31.4z"/>
<path class="st0" d="M135.8,48.9c-3,0.2-4.9,2.6-4.8,4.5c0,1.9,2,4.3,5.1,4.5c3.2,0.2,6.5-2.2,6.6-4.4
	C142.9,51.2,139.1,48.6,135.8,48.9z"/>
<path class="st0" d="M70,87.9c-3.1,0.2-5.2,2.8-5.1,4.9c0.1,1.8,1.7,4.3,4.8,4.5c3.3,0.3,7-2.1,7.2-4.4C77.2,90.4,73.4,87.7,70,87.9
	z"/>
<path class="st0" d="M103.5,106.7c-3.1,0-5.3,2.3-5.7,4c-0.5,2,1.2,4.7,4.2,5c3.3,0.4,7.4-2.1,7.6-4.5
	C109.6,109.1,106.8,106.7,103.5,106.7z"/>
<path class="st0" d="M70.6,102.2c4.7-0.1,7.7-2.1,9.4-3.2c0.9-0.6,4-2.7,4.2-5.9c0.2-2.1-1-3.7-1.5-4.4c-0.7-0.9-1.5-2-3.3-3
	c-1-0.6-1.6-0.7-2.1-1.3c-0.6-0.7-0.4-1.2-0.3-2.5c0.1-1.2,0-2.5,0-3.7s0-2.7,0-2.7s2.4-1.1,3-1.3c2.8-1.3,2.7-2.1,5.4-3.9
	c3-1.9,3.8-1.3,6.3-3.2c2.5-1.9,3.6-2.8,3.6-2.8c0.9-0.9,1.4-1.4,1.8-1.3c0.6,0.1,0.4,1.3,0.3,2.9c-0.1,1.7,0.1,3.3,0,5
	c-0.1,2.8,0.2,2.6,0.3,7.4c0,1.6,0,1.4,0,7.9c0,4.5,0,6.8,0,6.9c0.7,5.1,2.8,7.4,0,9.4c-1.1,0.8-1.7,0.6-3.3,1.7
	c-2.7,1.8-3.3,3.8-3.6,5.2c-0.4,1.5-1.1,4.1,1.2,6.9c1,1.2,2.6,3.2,6.6,4.2c3.3,0.8,7.3,0.7,10.3-0.2c5.9-1.7,8.3-6.3,6.9-9.7
	c-1.4-3.5-6.2-3.9-6.6-7.7c-0.1-1,0.2-1.7,0-4.5c-0.1-2.1-0.3-2.3,0-3c0.8-1.8,3.3-2.4,6.6-4c0.7-0.3,3.6-2.1,9.4-5.7
	c3.3-2,6-3.8,8.5-5.4c3.9-2.5,5.8-3.8,6-4c4.1-4.3,3.1-10.5,3-11.1c-0.1-0.8-0.4-1.9,0.6-3c1.2-1.3,2.9-1.5,4.5-2.7
	c1.5-1.2,1.6-2.4,1.8-4.2c0.2-2.2,0.4-4.8-2.4-7.4c-0.8-0.7-4.7-4.2-10.6-4.2c-6.7,0.1-10.5,4.8-11.5,6c-0.7,0.8-3.3,4.1-1.2,7.4
	c0.9,1.4,1.7,2.7,3.9,3.5c0.8,0.3,1.9,0.5,2.4,1.2c0.5,0.5,0.3,1,0,2c-0.1,0.4-0.5,1.8-0.6,2.9c-0.2,2.1,0.7,2.4,0,3.5
	c-0.4,0.6-0.9,0.8-2.7,1.8c-1.5,0.9-3,1.9-6,3.9c-1.7,1.1-1.4,1-4.5,3.2c-5.5,3.8-6.3,4.2-6.9,4c-0.9-0.2-0.9-1.4-0.9-3.3
	c0-2.6,0.6-4.6,0.6-4.7c0.6-2,0.2-2.5,0-7.9c0,0,0,0,0-11.1V46c0,0-0.6-1.2,0-1.8c0.6-0.7,2.3-0.5,3.9-1c1.8-0.6,2.2-1.9,3-4.4
	c0.7-2.2,1.1-3.4,0.6-5c-0.3-1-0.8-2.6-3-4.2c-2.2-1.5-4.9-2.2-6.3-2.5c-1.9-0.4-3.4-0.8-5.4-0.7c-3.4,0.2-5.6,1.6-7.2,2.7
	c-2.6,1.6-3.6,3.3-3.9,4c-1.3,2.6-0.5,4.7,0,5.9c0.8,1.9,1.3,3.1,3.3,4c1.5,0.7,2.9,0.7,3.6,1.5c0.6,0.7-0.1,1.1-0.3,2.5
	c-0.4,2.2,1,2.8,0.3,4.2c-0.5,1.1-1.8,1.7-3,2.3c-3.3,1.7-6.3,3.6-9.7,5.4c-4.5,2.4-2.6,1.9-12.1,7.6c-3,1.8-4.7,2.7-6.3,4.5
	c-0.9,1-2.3,2.5-2.7,4.5c-0.7,3.2,0.3,5.9,0.3,5.9c0.2,0.6,0.6,1.4,0,2.3c-0.5,0.9-1.5,1.3-2.4,1.8c-2.4,1.5-3.1,3.2-3.6,4.5
	c-0.2,0.6-0.9,2.6,0,5c0.6,1.6,1.5,3.9,5.1,5.5C64.2,101.1,66.9,102.3,70.6,102.2z"/>
</svg>
