<?xml version="1.0" encoding="utf-8"?>
<!-- Generator: Adobe Illustrator 26.0.1, SVG Export Plug-In . SVG Version: 6.00 Build 0)  -->
<svg version="1.1" id="Layer_1" xmlns="http://www.w3.org/2000/svg" xmlns:xlink="http://www.w3.org/1999/xlink" x="0px" y="0px"
	 viewBox="0 0 100 100" style="enable-background:new 0 0 100 100;" xml:space="preserve">
<style type="text/css">
	.st0{display:none;}
	.st1{display:inline;}
	.st2{fill:#FFFFFF;}
	.st3{fill:#FFFFFF;stroke:#FFFFFF;stroke-miterlimit:10;}
</style>
<g class="st0">
	<g class="st1">
		<path class="st2" d="M-234.7,5.6c0-91.9,0-183.7,0-275.6c189.8,0,379.6,0,569.4,0c0,192.2,0,384.5,0,576.7
			c-90.7,0-181.5,0-272.2,0c0.7-0.1,1.5-0.4,2.2-0.4c12.4-0.9,24.7-2.2,36.9-4.7c40-8.2,77.3-22.6,110.5-46.9
			c18.6-13.5,36-28.2,50.8-45.9c12.2-14.5,23.7-29.5,32.9-46.2c8.1-14.7,15.4-29.6,21-45.4c9-25.2,14.5-51.1,16.5-77.7
			c2.6-36-1.5-71.4-11.8-106c-4.7-15.7-11.1-30.7-18.1-45.4c-8-16.6-18.3-31.8-29.2-46.6c-12.2-16.5-26.8-30.7-42.1-44.2
			c-22-19.3-47.3-33.7-74-45.4c-27.9-12.2-57.4-18.8-87.8-20.8c-46.3-3-91,3.7-133.6,23.1c-26.3,12-51,26.5-72.5,46
			c-16.1,14.6-31.2,29.9-43.7,47.8c-9.9,14.1-19.1,28.5-26.4,44.2c-7.2,15.5-13.6,31.3-18.1,47.9c-4.2,15.6-7.5,31.4-9,47.5
			C-233.6-6.3-234.1-0.4-234.7,5.6z"/>
		<path d="M-234.7,5.6c0.6-5.9,1.1-11.9,1.7-17.8c1.5-16.1,4.8-31.9,9-47.5c4.5-16.6,10.8-32.3,18.1-47.9
			c7.3-15.7,16.6-30.1,26.4-44.2c12.5-17.9,27.6-33.2,43.7-47.8c21.6-19.5,46.2-34,72.5-46C-20.7-265,24-271.7,70.3-268.7
			c30.4,2,59.9,8.6,87.8,20.8c26.7,11.7,52,26,74,45.4c15.3,13.4,30,27.7,42.1,44.2c10.9,14.8,21.2,30,29.2,46.6
			c7.1,14.7,13.5,29.7,18.1,45.4c10.3,34.6,14.4,70,11.8,106c-1.9,26.6-7.4,52.5-16.5,77.7c-5.7,15.8-13,30.7-21,45.4
			c-9.2,16.7-20.7,31.6-32.9,46.2c-14.8,17.7-32.3,32.3-50.8,45.9c-33.2,24.2-70.5,38.7-110.5,46.9c-12.2,2.5-24.5,3.8-36.9,4.7
			c-0.8,0.1-1.5,0.3-2.2,0.4c-8.5,0-17,0-25.5,0c-0.7-0.1-1.3-0.4-2-0.4c-13-0.9-25.8-2.4-38.6-5.1c-39.4-8.2-76.1-22.5-108.8-46.3
			c-18.7-13.6-36.3-28.4-51.3-46.2c-12.1-14.5-23.6-29.3-32.7-45.9c-8.1-14.7-15.5-29.7-21.1-45.6c-7.8-22-13.1-44.6-15.5-67.8
			c-0.6-5.8-1.1-11.7-1.7-17.5C-234.7,23-234.7,14.3-234.7,5.6z M-210.4,26.1c-0.1,28.2,7,62.3,20.5,95.3c6.5,15.9,15,30.7,24.3,45
			c10.9,17,24.6,31.8,39,45.8c19.6,19,42.4,33.7,66.8,45.3c43.5,20.8,89.6,27.9,137.5,22.8c30.3-3.2,59.4-11.3,86.6-25.6
			c24.5-12.9,47.4-27.9,66.8-47.8c13.4-13.7,26-28,36.2-44.4c9.1-14.5,17.2-29.5,23.6-45.4c11-27.5,17.2-55.9,18.7-85.4
			c1.7-33.3-2.9-65.9-13.3-97.7c-5.3-16.3-12.7-31.7-20.9-46.7c-8.7-16-19.8-30.4-31.6-44.3c-15.5-18.2-33.7-33.6-53.8-46.4
			C133.3-239.8,71.3-252,5-240.9c-37,6.2-71.2,19.8-101.9,41.9c-18.9,13.6-36.5,28.5-51.3,46.6c-11.5,14.1-22.2,28.7-30.6,44.9
			c-7.7,14.9-14.5,30-19.5,46C-206.4-35.2-210.4-8.6-210.4,26.1z"/>
		<path class="st2" d="M-234.7,31.7c0.5,5.8,1.1,11.7,1.7,17.5c2.4,23.2,7.7,45.8,15.5,67.8c5.6,15.9,13,30.9,21.1,45.6
			c9.1,16.6,20.6,31.5,32.7,45.9c14.9,17.8,32.5,32.6,51.3,46.2C-79.7,278.5-43,292.8-3.6,301c12.8,2.7,25.6,4.2,38.6,5.1
			c0.7,0,1.3,0.3,2,0.4c-90.5,0-181,0-271.6,0C-234.7,215-234.7,123.3-234.7,31.7z"/>
		<path class="st2" d="M-210.4,26.1c0-34.7,4.1-61.3,12.2-87.4c5-16,11.8-31.2,19.5-46c8.4-16.2,19.1-30.8,30.6-44.9
			c14.8-18.2,32.4-33,51.3-46.6c30.7-22,64.9-35.7,101.9-41.9c66.3-11.1,128.3,1.1,185,37.5c20,12.8,38.3,28.2,53.8,46.4
			c11.8,13.8,22.8,28.3,31.6,44.3c8.2,15,15.5,30.4,20.9,46.7c10.4,31.7,14.9,64.3,13.3,97.7c-1.5,29.5-7.7,57.9-18.7,85.4
			c-6.4,15.9-14.5,30.9-23.6,45.4c-10.2,16.3-22.8,30.6-36.2,44.4c-19.5,19.9-42.3,35-66.8,47.8c-27.2,14.3-56.3,22.3-86.6,25.6
			c-47.9,5.1-94-2.1-137.5-22.8c-24.5-11.7-47.2-26.4-66.8-45.3c-14.4-14-28-28.8-39-45.8c-9.3-14.4-17.8-29.2-24.3-45
			C-203.4,88.4-210.6,54.2-210.4,26.1z M6,24.4c-1.4,1.5-2.9,3.4-4.6,5.1c-15.5,15.2-31,30.4-46.6,45.5
			c-15.8,15.4-31.5,30.8-47.3,46.1c-7.3,7.1-14.7,14.2-22.2,21.3c-0.7,0.7-1.8,1-2.8,1.5c0.3,0.5,0.6,0.9,0.9,1.4
			c2.1,0.1,4.2,0.4,6.2,0.4c111,0,222,0,333.1,0c1.6,0,3.3-0.1,4.9-0.3c0.6-0.1,1.1-0.4,1.9-0.7c-41.3-40.3-82.3-80.3-124.4-121.4
			c-1.4,1.9-2.4,4.2-4.1,5.6C88.2,39.5,75.1,50,62,60.4c-3.9,3.1-7.4,3.1-11.3,0c-4.8-3.8-9.5-7.6-14.3-11.4
			C26.4,40.8,16.3,32.7,6,24.4z M56.1,45.7c1.3-1,2.3-1.7,3.2-2.5c7.3-6.1,14.6-12.2,22-18.3C99.6,9.9,118-5,136.4-19.9
			c18.8-15.3,37.6-30.6,56.4-45.9c9.2-7.4,18.4-14.8,27.6-22.1c2.7-2.2,5.3-4.3,8.5-6.9c-115.3,0-229.9,0-345.1,0
			c1.1,1,1.6,1.4,2.1,1.8c12.7,10.4,25.4,20.8,38.1,31.2c18.7,15.3,37.4,30.5,56.2,45.7C-9.5-7.8,0.8,0.4,11.2,8.7
			c7.5,6,15,11.9,22.4,18C41.1,33,48.6,39.3,56.1,45.7z M118.4,14.7c40.7,39.8,81.4,79.5,122.7,119.8c0.2-2.6,0.5-4.5,0.5-6.4
			c0-52.2,0-104.4,0-156.6c0-16.6,0-33.3,0-49.9c0-2-0.4-4-0.7-6.7C199.6-51.4,159.1-18.5,118.4,14.7z M-128.9,133.8
			c0.3,0.1,0.7,0.1,1,0.2c0.7-0.6,1.4-1.2,2.1-1.8c4.8-4.8,9.6-9.7,14.5-14.5c15.9-15.6,31.9-31.2,47.9-46.8
			C-44.7,52.6-26,34.4-7.2,16.1c0.5-0.5,0.9-1,1.4-1.6C-46.4-18.6-87-51.6-127.9-84.9c-0.4,1.8-0.9,3.1-0.9,4.3
			C-128.9-9.1-128.9,62.3-128.9,133.8z"/>
		<path d="M6,24.4c10.3,8.3,20.4,16.4,30.4,24.5c4.7,3.8,9.5,7.6,14.3,11.4c3.9,3.1,7.4,3.1,11.3,0C75.1,50,88.2,39.5,101.1,28.9
			c1.7-1.4,2.8-3.7,4.1-5.6c42.1,41.1,83.1,81.1,124.4,121.4c-0.8,0.3-1.4,0.7-1.9,0.7c-1.6,0.2-3.3,0.3-4.9,0.3
			c-111,0-222,0-333.1,0c-2.1,0-4.2-0.3-6.2-0.4c-0.3-0.5-0.6-0.9-0.9-1.4c0.9-0.5,2-0.8,2.8-1.5c7.4-7.1,14.8-14.1,22.2-21.3
			C-76.7,105.8-61,90.4-45.2,75c15.6-15.2,31.1-30.3,46.6-45.5C3.1,27.8,4.6,26,6,24.4z"/>
		<path d="M56.1,45.7c-7.6-6.3-15-12.7-22.6-19c-7.4-6.1-14.9-12-22.4-18C0.8,0.4-9.5-7.8-19.8-16.2C-38.6-31.4-57.3-46.6-76-61.9
			c-12.7-10.4-25.4-20.8-38.1-31.2c-0.5-0.4-1-0.9-2.1-1.8c115.3,0,229.8,0,345.1,0c-3.2,2.6-5.8,4.8-8.5,6.9
			c-9.2,7.4-18.4,14.7-27.6,22.1C174-50.6,155.2-35.3,136.4-20c-18.3,15-36.7,29.9-55,44.9c-7.4,6-14.7,12.2-22,18.3
			C58.4,44,57.4,44.7,56.1,45.7z"/>
		<path d="M118.4,14.7c40.8-33.2,81.3-66.2,122.4-99.7c0.3,2.6,0.7,4.6,0.7,6.7c0.1,16.6,0,33.3,0,49.9c0,52.2,0,104.4,0,156.6
			c0,1.9-0.3,3.7-0.5,6.4C199.7,94.3,159.1,54.5,118.4,14.7z"/>
		<path d="M-128.9,133.8c0-71.5,0-142.9,0-214.4c0-1.3,0.5-2.6,0.9-4.3C-87-51.6-46.4-18.6-5.8,14.5c-0.5,0.6-1,1.1-1.4,1.6
			C-26,34.4-44.7,52.6-63.5,70.9c-16,15.6-31.9,31.1-47.9,46.8c-4.9,4.8-9.7,9.7-14.5,14.5c-0.7,0.7-1.4,1.2-2.1,1.8
			C-128.2,133.9-128.6,133.9-128.9,133.8z"/>
	</g>
</g>
<path class="st3" d="M100,48.3C99.1,22.8,78.1,1.4,52.8,0.1C23.9-1.5-1.4,23.7,0.1,52.6c1.3,26,23.8,48,51.1,47.4
	C79.1,99.3,100.9,75.2,100,48.3z M84.3,29L50.9,54.8L18.7,29H84.3z M16,30.4l23.2,18.7L16,71.3V30.4z M18.7,74.1l23.1-23.3l9.7,7.8
	l9.1-7.1l23.7,22.6H18.7z M86.6,71.8L63.3,49.2l23.3-18.8V71.8z"/>
</svg>
