<?xml version="1.0" encoding="utf-8"?>
<!-- Generator: Adobe Illustrator 26.0.1, SVG Export Plug-In . SVG Version: 6.00 Build 0)  -->
<svg version="1.1" id="Layer_1" xmlns="http://www.w3.org/2000/svg" xmlns:xlink="http://www.w3.org/1999/xlink" x="0px" y="0px"
	 viewBox="0 0 2676 97.2" style="enable-background:new 0 0 2676 97.2;" xml:space="preserve">
<style type="text/css">
	.st0{opacity:0.43;fill:#020202;enable-background:new    ;}
	.st1{fill:#F1AE4F;}
	.st2{opacity:0.26;fill:#006838;enable-background:new    ;}
	.st3{fill:#0A6B37;}
	.st4{opacity:0.43;fill:#F89938;enable-background:new    ;}
	.st5{fill:#E7E514;}
	.st6{opacity:0.43;fill:#1B4587;enable-background:new    ;}
	.st7{fill:#1D88C9;}
	.st8{opacity:0.26;fill:#1B4587;enable-background:new    ;}
</style>
<path class="st0" d="M572.5,25.8c-3.2-4.9-8.8-5.7-19.3-7.4c-2.8-0.4-9.6-1.3-18.2,0c-7,1-10.4,1.6-13.6,4.5c-5.4,5-6.1,13-6.4,16.6
	c-0.2,2.3-1.1,13.7,6.4,23.2c8.6,11,21.2,10.2,23.2,10.1c18.6-1.4,26.7-22.6,27.3-24.2C573.3,45,577.6,33.3,572.5,25.8z"/>
<path class="st0" d="M598.6,24.8c-2.4,3.5-2.5,7.5-2.5,10.9c-0.2,11.2,5.1,19.5,6.6,21.7c1.6,2.3,10.7,15.8,25.9,15.4
	c1.4,0,15.7-0.7,22.8-13.5c4.7-8.4,3.6-17.4,3.1-21.3c-0.6-4.5-1.2-10.1-5.2-14.4c-3.2-3.4-7.2-4.1-15-5.3c-9.9-1.6-17.3-0.6-20.5,0
	C606,19.7,601.5,20.5,598.6,24.8z"/>
<path class="st1" d="M668.4,24.9c-0.1-2.9,0.4-3.2,0-4c-0.8-1.8-3.5-1.6-6.4-2c-2.3-0.3-1.4-0.5-9.8-3.1c-7.4-2.3-11-3.5-13.9-3.9
	c-4.2-0.7-8.3-0.5-16.6,0c-6,0.3-9.1,0.5-12.7,1.5c-5,1.4-4.8,2.4-10.2,4c-7.2,2.2-12.9,2.1-14.8,2c-0.8,0-3.1-0.2-9.3-1.5
	c-10.7-2.3-11.8-3.7-18.7-5.1c-8.1-1.6-14.7-1.2-17.8-1c-5.2,0.3-9.5,1.1-15.2,2.3c-8.2,1.6-6.8,1.9-10.5,2.3
	c-4.6,0.4-7.4,0-9.3,2.3c-1.6,1.9-1.8,4.5-1.8,5.1c-0.1,1,0,3.1,1.1,5c0.9,1.4,1.6,1.6,2.7,2.8c1.4,1.4,2,3.1,3,6.6
	c1.3,4.8,1.8,8.1,2.3,10.4c0.7,3.6,1.7,8.7,4.3,13.6c3.1,5.9,7.3,9.3,9.1,10.6c5.7,4.1,11.1,4.9,13.9,5.3c2.3,0.3,7.6,0.7,13.9-1.3
	c7.9-2.5,12.8-7.3,14.8-9.3c3.7-3.7,5.9-7.3,7.7-10.4c2.2-3.7,3.4-5.5,4.1-8.1c1-3.6,0.6-5.4,2.3-8.1c0.5-0.7,2.3-3.7,4.8-3.5
	c1.4,0.1,2.5,1.1,3.9,3c3.2,4.5,3.7,8.4,5,12.1c1.6,4.7,3.9,7.6,7,11.6c3.2,4.1,7.1,9,13.6,11.9c6.3,2.7,11.9,2.1,17.3,1.5
	c3.7-0.4,7.3-0.8,11.6-3c2.3-1.2,7.7-3.9,11.1-10.1c1.2-2.2,2-4.8,3.4-9.8c0.7-2.4,1.3-4.9,2.5-10.1c0.8-3.2,2-6.3,2.7-9.6
	c0.3-1.4,0.6-2.9,1.8-4s2.3-0.8,3-2C668.8,27.8,668.5,27.3,668.4,24.9z M571.9,48.6c-0.6,1.6-8.8,22.8-27.3,24.2
	c-2,0.1-14.6,0.9-23.2-10.1c-7.5-9.5-6.6-20.9-6.4-23.2c0.3-3.7,0.9-11.6,6.4-16.6c3.2-3,6.7-3.5,13.7-4.5c8.6-1.3,15.4-0.4,18.2,0
	c10.5,1.6,16.1,2.5,19.3,7.4C577.6,33.3,573.3,44.9,571.9,48.6z M651.4,59.3c-7.1,12.8-21.5,13.5-22.8,13.5
	c-15.2,0.5-24.4-13.1-25.9-15.4c-1.5-2.2-6.8-10.5-6.6-21.7c0.1-3.4,0.1-7.4,2.5-10.9c2.9-4.3,7.4-5.1,15.2-6.5
	c3.2-0.6,10.6-1.6,20.5,0c7.9,1.2,11.8,1.9,15,5.3c4,4.2,4.7,9.9,5.2,14.4C655,41.9,656.1,50.8,651.4,59.3z"/>
<path class="st2" d="M70.5,22.5c-3.2-4.9-8.8-5.7-19.3-7.4c-2.8-0.4-9.6-1.3-18.2,0c-7,1-10.4,1.6-13.6,4.5c-5.4,5-6.1,13-6.4,16.6
	c-0.2,2.3-1.1,13.7,6.4,23.2c8.6,11,21.2,10.2,23.2,10.1c18.6-1.4,26.7-22.6,27.3-24.2C71.3,41.7,75.6,30,70.5,22.5z"/>
<path class="st2" d="M96.6,22c-2.4,3.5-2.5,7.5-2.5,10.9c-0.2,11.2,5.1,19.5,6.6,21.7c1.6,2.3,10.7,15.8,25.9,15.4
	c1.4,0,15.7-0.7,22.8-13.5c4.7-8.4,3.6-17.4,3.1-21.3c-0.6-4.5-1.2-10.1-5.2-14.4c-3.2-3.4-7.2-4.1-15-5.3c-9.9-1.6-17.3-0.6-20.5,0
	C104,16.9,99.5,17.7,96.6,22z"/>
<path class="st3" d="M166.4,22c-0.1-2.9,0.4-3.2,0-4c-0.8-1.8-3.5-1.6-6.4-2c-2.3-0.3-1.4-0.5-9.8-3.1c-7.4-2.3-11-3.5-13.9-3.9
	c-4.2-0.7-8.3-0.5-16.6,0c-6,0.3-9.1,0.5-12.7,1.5c-5,1.4-4.8,2.4-10.2,4c-7.2,2.2-12.9,2.1-14.8,2c-0.8,0-3.1-0.2-9.3-1.5
	C62,12.7,60.9,11.3,54,9.9c-8.1-1.6-14.7-1.2-17.8-1C31,9.2,26.7,10,21,11.2c-8.2,1.6-6.8,1.9-10.5,2.3c-4.6,0.4-7.4,0-9.3,2.3
	c-1.6,1.9-1.8,4.5-1.8,5.1c-0.1,1,0,3.1,1.1,5c0.9,1.4,1.6,1.6,2.7,2.8c1.4,1.4,2,3.1,3,6.6c1.3,4.8,1.8,8.1,2.3,10.4
	c0.7,3.6,1.7,8.7,4.3,13.6c3.1,5.9,7.3,9.3,9.1,10.6c5.7,4.1,11.1,4.9,13.9,5.3c2.3,0.3,7.6,0.7,13.9-1.3c7.9-2.5,12.8-7.3,14.8-9.3
	c3.7-3.7,5.9-7.3,7.7-10.4c2.2-3.7,3.4-5.5,4.1-8.1c1-3.6,0.6-5.4,2.3-8.1c0.5-0.7,2.3-3.7,4.8-3.5c1.4,0.1,2.5,1.1,3.9,3
	c3.2,4.5,3.7,8.4,5,12.1c1.6,4.7,3.9,7.6,7,11.6c3.2,4.1,7.1,9,13.6,11.9c6.3,2.7,11.9,2.1,17.3,1.5c3.7-0.4,7.3-0.8,11.6-3
	c2.3-1.2,7.7-3.9,11.1-10.1c1.2-2.2,2-4.8,3.4-9.8c0.7-2.4,1.3-4.9,2.5-10.1c0.8-3.2,2-6.3,2.7-9.6c0.3-1.4,0.6-2.9,1.8-4
	s2.3-0.8,3-2C166.8,24.9,166.5,24.4,166.4,22z M69.9,45.7c-0.6,1.6-8.8,22.8-27.3,24.2c-2,0.1-14.6,0.9-23.2-10.1
	c-7.5-9.5-6.6-20.9-6.4-23.2c0.3-3.7,0.9-11.6,6.4-16.6c3.2-3,6.7-3.5,13.7-4.5c8.6-1.3,15.4-0.4,18.2,0c10.5,1.6,16.1,2.5,19.3,7.4
	C75.6,30.4,71.3,42,69.9,45.7z M149.4,56.4c-7.1,12.8-21.5,13.5-22.8,13.5c-15.2,0.5-24.4-13.1-25.9-15.4
	c-1.5-2.2-6.8-10.5-6.6-21.7c0.1-3.4,0.1-7.4,2.5-10.9c2.9-4.3,7.4-5.1,15.2-6.5c3.2-0.6,10.6-1.6,20.5,0c7.9,1.2,11.8,1.9,15,5.3
	c4,4.2,4.7,9.9,5.2,14.4C153,39,154.1,47.9,149.4,56.4z"/>
<path class="st4" d="M238.2,24.5c-3.2-4.9-8.8-5.7-19.3-7.4c-2.8-0.4-9.6-1.3-18.2,0c-7,1-10.4,1.6-13.6,4.5c-5.4,5-6.1,13-6.4,16.6
	c-0.2,2.3-1.1,13.7,6.4,23.2c8.6,11,21.2,10.2,23.2,10.1c18.6-1.4,26.7-22.6,27.3-24.2C239,43.7,243.3,32,238.2,24.5z"/>
<path class="st4" d="M264.3,22.9c-2.4,3.5-2.5,7.5-2.5,10.9c-0.2,11.2,5.1,19.5,6.6,21.7c1.6,2.3,10.7,15.8,25.9,15.4
	c1.4,0,15.7-0.7,22.8-13.5c4.7-8.4,3.6-17.4,3.1-21.3c-0.6-4.5-1.2-10.1-5.2-14.4c-3.2-3.4-7.2-4.1-15-5.3c-9.9-1.6-17.3-0.6-20.5,0
	C271.7,17.8,267.2,18.6,264.3,22.9z"/>
<path class="st5" d="M334.1,23.2c-0.1-2.9,0.4-3.2,0-4c-0.8-1.8-3.5-1.6-6.4-2c-2.3-0.3-1.4-0.5-9.8-3.1c-7.4-2.3-11-3.5-13.9-3.9
	c-4.2-0.7-8.3-0.5-16.6,0c-6,0.3-9.1,0.5-12.7,1.5c-5,1.4-4.8,2.4-10.2,4c-7.2,2.2-12.9,2.1-14.8,2c-0.8,0-3.1-0.2-9.3-1.5
	c-10.7-2.3-11.8-3.7-18.7-5.1c-8.1-1.6-14.7-1.2-17.8-1c-5.2,0.3-9.5,1.1-15.2,2.3c-8.2,1.6-6.8,1.9-10.5,2.3
	c-4.6,0.4-7.4,0-9.3,2.3c-1.6,1.9-1.8,4.5-1.8,5.1c-0.1,1,0,3.1,1.1,5c0.9,1.4,1.6,1.6,2.7,2.8c1.4,1.4,2,3.1,3,6.6
	c1.3,4.8,1.8,8.1,2.3,10.4c0.7,3.6,1.7,8.7,4.3,13.6c3.1,5.9,7.3,9.3,9.1,10.6c5.7,4.1,11.1,4.9,13.9,5.3c2.3,0.3,7.6,0.7,13.9-1.3
	c7.9-2.5,12.8-7.3,14.8-9.3c3.7-3.7,5.9-7.3,7.7-10.4c2.2-3.7,3.4-5.5,4.1-8.1c1-3.6,0.6-5.4,2.3-8.1c0.5-0.7,2.3-3.7,4.8-3.5
	c1.4,0.1,2.5,1.1,3.9,3c3.2,4.5,3.7,8.4,5,12.1c1.6,4.7,3.9,7.6,7,11.6c3.2,4.1,7.1,9,13.6,11.9c6.3,2.7,11.9,2.1,17.3,1.5
	c3.7-0.4,7.3-0.8,11.6-3c2.3-1.2,7.7-3.9,11.1-10.1c1.2-2.2,2-4.8,3.4-9.8c0.7-2.4,1.3-4.9,2.5-10.1c0.8-3.2,2-6.3,2.7-9.6
	c0.3-1.4,0.6-2.9,1.8-4c1.2-1.1,2.3-0.8,3-2C334.5,26.1,334.2,25.6,334.1,23.2z M237.6,46.9c-0.6,1.6-8.8,22.8-27.3,24.2
	c-2,0.1-14.6,0.9-23.2-10.1c-7.5-9.5-6.6-20.9-6.4-23.2c0.3-3.7,0.9-11.6,6.4-16.6c3.2-3,6.7-3.5,13.7-4.5c8.6-1.3,15.4-0.4,18.2,0
	c10.5,1.6,16.1,2.5,19.3,7.4C243.3,31.6,239,43.2,237.6,46.9z M317.1,57.6c-7.1,12.8-21.5,13.5-22.8,13.5
	c-15.2,0.5-24.4-13.1-25.9-15.4c-1.5-2.2-6.8-10.5-6.6-21.7c0.1-3.4,0.1-7.4,2.5-10.9c2.9-4.3,7.4-5.1,15.2-6.5
	c3.2-0.6,10.6-1.6,20.5,0c7.9,1.2,11.8,1.9,15,5.3c4,4.2,4.7,9.9,5.2,14.4C320.7,40.2,321.8,49.1,317.1,57.6z"/>
<path class="st6" d="M405.4,25.4c-3.2-4.9-8.8-5.7-19.3-7.4c-2.8-0.4-9.6-1.3-18.2,0c-7,1-10.4,1.6-13.6,4.5c-5.4,5-6.1,13-6.4,16.6
	c-0.2,2.3-1.1,13.7,6.4,23.2c8.6,11,21.2,10.2,23.2,10.1c18.6-1.4,26.7-22.6,27.3-24.2C406.2,44.6,410.5,32.9,405.4,25.4z"/>
<path class="st6" d="M431.5,24.5C429.1,28,429,32,429,35.4c-0.2,11.2,5.1,19.5,6.6,21.7c1.6,2.3,10.7,15.8,25.9,15.4
	c1.4,0,15.7-0.7,22.8-13.5c4.7-8.4,3.6-17.4,3.1-21.3c-0.6-4.5-1.2-10.1-5.2-14.4c-3.2-3.4-7.2-4.1-15-5.3c-9.9-1.6-17.3-0.6-20.5,0
	C438.9,19.4,434.4,20.2,431.5,24.5z"/>
<path class="st7" d="M501.3,24.5c-0.1-2.9,0.4-3.2,0-4c-0.8-1.8-3.5-1.6-6.4-2c-2.3-0.3-1.4-0.5-9.8-3.1c-7.4-2.3-11-3.5-13.9-3.9
	c-4.2-0.7-8.3-0.5-16.6,0c-6,0.3-9.1,0.5-12.7,1.5c-5,1.4-4.8,2.4-10.2,4c-7.2,2.2-12.9,2.1-14.8,2c-0.8,0-3.1-0.2-9.3-1.5
	c-10.7-2.3-11.8-3.7-18.7-5.1c-8.1-1.6-14.7-1.2-17.8-1c-5.2,0.3-9.5,1.1-15.2,2.3c-8.2,1.6-6.8,1.9-10.5,2.3
	c-4.6,0.4-7.4,0-9.3,2.3c-1.6,1.9-1.8,4.5-1.8,5.1c-0.1,1,0,3.1,1.1,5c0.9,1.4,1.6,1.6,2.7,2.8c1.4,1.4,2,3.1,3,6.6
	c1.3,4.8,1.8,8.1,2.3,10.4c0.7,3.6,1.7,8.7,4.3,13.6c3.1,5.9,7.3,9.3,9.1,10.6c5.7,4.1,11.1,4.9,13.9,5.3c2.3,0.3,7.6,0.7,13.9-1.3
	c7.9-2.5,12.8-7.3,14.8-9.3c3.7-3.7,5.9-7.3,7.7-10.4c2.2-3.7,3.4-5.5,4.1-8.1c1-3.6,0.6-5.4,2.3-8.1c0.5-0.7,2.3-3.7,4.8-3.5
	c1.4,0.1,2.5,1.1,3.9,3c3.2,4.5,3.7,8.4,5,12.1c1.6,4.7,3.9,7.6,7,11.6c3.2,4.1,7.1,9,13.6,11.9c6.3,2.7,11.9,2.1,17.3,1.5
	c3.7-0.4,7.3-0.8,11.6-3c2.3-1.2,7.7-3.9,11.1-10.1c1.2-2.2,2-4.8,3.4-9.8c0.7-2.4,1.3-4.9,2.5-10.1c0.8-3.2,2-6.3,2.7-9.6
	c0.3-1.4,0.6-2.9,1.8-4c1.2-1.1,2.3-0.8,3-2C501.7,27.4,501.4,26.9,501.3,24.5z M404.8,48.2c-0.6,1.6-8.8,22.8-27.3,24.2
	c-2,0.1-14.6,0.9-23.2-10.1c-7.5-9.5-6.6-20.9-6.4-23.2c0.3-3.7,0.9-11.6,6.4-16.6c3.2-3,6.7-3.5,13.7-4.5c8.6-1.3,15.4-0.4,18.2,0
	c10.5,1.6,16.1,2.5,19.3,7.4C410.5,32.9,406.2,44.5,404.8,48.2z M484.3,58.9c-7.1,12.8-21.5,13.5-22.8,13.5
	c-15.2,0.5-24.4-13.1-25.9-15.4c-1.5-2.2-6.8-10.5-6.6-21.7c0.1-3.4,0.1-7.4,2.5-10.9c2.9-4.3,7.4-5.1,15.2-6.5
	c3.2-0.6,10.6-1.6,20.5,0c7.9,1.2,11.8,1.9,15,5.3c4,4.2,4.7,9.9,5.2,14.4C487.9,41.5,489,50.4,484.3,58.9z"/>
<path class="st0" d="M1241.5,29.4c-3.2-4.9-8.8-5.7-19.3-7.4c-2.8-0.4-9.6-1.3-18.2,0c-7,1-10.4,1.6-13.6,4.5
	c-5.4,5-6.1,13-6.4,16.6c-0.2,2.3-1.1,13.7,6.4,23.2c8.6,11,21.2,10.2,23.2,10.1c18.6-1.4,26.7-22.6,27.3-24.2
	C1242.3,48.6,1246.6,36.9,1241.5,29.4z"/>
<path class="st0" d="M1267.6,28.4c-2.4,3.5-2.5,7.5-2.5,10.9c-0.2,11.2,5.1,19.5,6.6,21.7c1.6,2.3,10.7,15.8,25.9,15.4
	c1.4,0,15.7-0.7,22.8-13.5c4.7-8.4,3.6-17.4,3.1-21.3c-0.6-4.5-1.2-10.1-5.2-14.4c-3.2-3.4-7.2-4.1-15-5.3c-9.9-1.6-17.3-0.6-20.5,0
	C1275,23.3,1270.5,24.1,1267.6,28.4z"/>
<path class="st1" d="M1337.4,28.5c-0.1-2.9,0.4-3.2,0-4c-0.8-1.8-3.5-1.6-6.4-2c-2.3-0.3-1.4-0.5-9.8-3.1c-7.4-2.3-11-3.5-13.9-3.9
	c-4.2-0.7-8.3-0.5-16.6,0c-6,0.3-9.1,0.5-12.7,1.5c-5,1.4-4.8,2.4-10.2,4c-7.2,2.2-12.9,2.1-14.8,2c-0.8,0-3.1-0.2-9.3-1.5
	c-10.7-2.3-11.8-3.7-18.7-5.1c-8.1-1.6-14.7-1.2-17.8-1c-5.2,0.3-9.5,1.1-15.2,2.3c-8.2,1.6-6.8,1.9-10.5,2.3
	c-4.6,0.4-7.4,0-9.3,2.3c-1.6,1.9-1.8,4.5-1.8,5.1c-0.1,1,0,3.1,1.1,5c0.9,1.4,1.6,1.6,2.7,2.8c1.4,1.4,2,3.1,3,6.6
	c1.3,4.8,1.8,8.1,2.3,10.4c0.7,3.6,1.7,8.7,4.3,13.6c3.1,5.9,7.3,9.3,9.1,10.6c5.7,4.1,11.1,4.9,13.9,5.3c2.3,0.3,7.6,0.7,13.9-1.3
	c7.9-2.5,12.8-7.3,14.8-9.3c3.7-3.7,5.9-7.3,7.7-10.4c2.2-3.7,3.4-5.5,4.1-8.1c1-3.6,0.6-5.4,2.3-8.1c0.5-0.7,2.3-3.7,4.8-3.5
	c1.4,0.1,2.5,1.1,3.9,3c3.2,4.5,3.7,8.4,5,12.1c1.6,4.7,3.9,7.6,7,11.6c3.2,4.1,7.1,9,13.6,11.9c6.3,2.7,11.9,2.1,17.3,1.5
	c3.7-0.4,7.3-0.8,11.6-3c2.3-1.2,7.7-3.9,11.1-10.1c1.2-2.2,2-4.8,3.4-9.8c0.7-2.4,1.3-4.9,2.5-10.1c0.8-3.2,2-6.3,2.7-9.6
	c0.3-1.4,0.6-2.9,1.8-4c1.2-1.1,2.3-0.8,3-2C1337.8,31.4,1337.5,30.9,1337.4,28.5z M1240.9,52.2c-0.6,1.6-8.8,22.8-27.3,24.2
	c-2,0.1-14.6,0.9-23.2-10.1c-7.5-9.5-6.6-20.9-6.4-23.2c0.3-3.7,0.9-11.6,6.4-16.6c3.2-3,6.7-3.5,13.7-4.5c8.6-1.3,15.4-0.4,18.2,0
	c10.5,1.6,16.1,2.5,19.3,7.4C1246.6,36.9,1242.3,48.5,1240.9,52.2z M1320.4,62.9c-7.1,12.8-21.5,13.5-22.8,13.5
	c-15.2,0.5-24.4-13.1-25.9-15.4c-1.5-2.2-6.8-10.5-6.6-21.7c0.1-3.4,0.1-7.4,2.5-10.9c2.9-4.3,7.4-5.1,15.2-6.5
	c3.2-0.6,10.6-1.6,20.5,0c7.9,1.2,11.8,1.9,15,5.3c4,4.2,4.7,9.9,5.2,14.4C1324,45.5,1325.1,54.4,1320.4,62.9z"/>
<path class="st2" d="M739.6,26.1c-3.2-4.9-8.8-5.7-19.3-7.4c-2.8-0.4-9.6-1.3-18.2,0c-7,1-10.4,1.6-13.6,4.5c-5.4,5-6.1,13-6.4,16.6
	c-0.2,2.3-1.1,13.7,6.4,23.2c8.6,11,21.2,10.2,23.2,10.1c18.6-1.4,26.7-22.6,27.3-24.2C740.4,45.3,744.7,33.6,739.6,26.1z"/>
<path class="st2" d="M765.7,25.7c-2.4,3.5-2.5,7.5-2.5,10.9c-0.2,11.2,5.1,19.5,6.6,21.7c1.6,2.3,10.7,15.8,25.9,15.4
	c1.4,0,15.7-0.7,22.8-13.5c4.7-8.4,3.6-17.4,3.1-21.3c-0.6-4.5-1.2-10.1-5.2-14.4c-3.2-3.4-7.2-4.1-15-5.3c-9.9-1.6-17.3-0.6-20.5,0
	C773.1,20.6,768.6,21.4,765.7,25.7z"/>
<path class="st3" d="M835.5,25.6c-0.1-2.9,0.4-3.2,0-4c-0.8-1.8-3.5-1.6-6.4-2c-2.3-0.3-1.4-0.5-9.8-3.1c-7.4-2.3-11-3.5-13.9-3.9
	c-4.2-0.7-8.3-0.5-16.6,0c-6,0.3-9.1,0.5-12.7,1.5c-5,1.4-4.8,2.4-10.2,4c-7.2,2.2-12.9,2.1-14.8,2c-0.8,0-3.1-0.2-9.3-1.5
	c-10.7-2.3-11.8-3.7-18.7-5.1c-8.1-1.6-14.7-1.2-17.8-1c-5.2,0.3-9.5,1.1-15.2,2.3c-8.2,1.6-6.8,1.9-10.5,2.3
	c-4.6,0.4-7.4,0-9.3,2.3c-1.6,1.9-1.8,4.5-1.8,5.1c-0.1,1,0,3.1,1.1,5c0.9,1.4,1.6,1.6,2.7,2.8c1.4,1.4,2,3.1,3,6.6
	c1.3,4.8,1.8,8.1,2.3,10.4c0.7,3.6,1.7,8.7,4.3,13.6c3.1,5.9,7.3,9.3,9.1,10.6c5.7,4.1,11.1,4.9,13.9,5.3c2.3,0.3,7.6,0.7,13.9-1.3
	c7.9-2.5,12.8-7.3,14.8-9.3c3.7-3.7,5.9-7.3,7.7-10.4c2.2-3.7,3.4-5.5,4.1-8.1c1-3.6,0.6-5.4,2.3-8.1c0.5-0.7,2.3-3.7,4.8-3.5
	c1.4,0.1,2.5,1.1,3.9,3c3.2,4.5,3.7,8.4,5,12.1c1.6,4.7,3.9,7.6,7,11.6c3.2,4.1,7.1,9,13.6,11.9c6.3,2.7,11.9,2.1,17.3,1.5
	c3.7-0.4,7.3-0.8,11.6-3c2.3-1.2,7.7-3.9,11.1-10.1c1.2-2.2,2-4.8,3.4-9.8c0.7-2.4,1.3-4.9,2.5-10.1c0.8-3.2,2-6.3,2.7-9.6
	c0.3-1.4,0.6-2.9,1.8-4c1.2-1.1,2.3-0.8,3-2C835.9,28.5,835.6,28,835.5,25.6z M739,49.3c-0.6,1.6-8.8,22.8-27.3,24.2
	c-2,0.1-14.6,0.9-23.2-10.1c-7.5-9.5-6.6-20.9-6.4-23.2c0.3-3.7,0.9-11.6,6.4-16.6c3.2-3,6.7-3.5,13.7-4.5c8.6-1.3,15.4-0.4,18.2,0
	c10.5,1.6,16.1,2.5,19.3,7.4C744.7,34,740.4,45.6,739,49.3z M818.5,60c-7.1,12.8-21.5,13.5-22.8,13.5c-15.2,0.5-24.4-13.1-25.9-15.4
	c-1.5-2.2-6.8-10.5-6.6-21.7c0.1-3.4,0.1-7.4,2.5-10.9c2.9-4.3,7.4-5.1,15.2-6.5c3.2-0.6,10.6-1.6,20.5,0c7.9,1.2,11.8,1.9,15,5.3
	c4,4.2,4.7,9.9,5.2,14.4C822.1,42.6,823.2,51.5,818.5,60z"/>
<path class="st4" d="M907.2,28.2c-3.2-4.9-8.8-5.7-19.3-7.4c-2.8-0.4-9.6-1.3-18.2,0c-7,1-10.4,1.6-13.6,4.5c-5.4,5-6.1,13-6.4,16.6
	c-0.2,2.3-1.1,13.7,6.4,23.2c8.6,11,21.2,10.2,23.2,10.1c18.6-1.4,26.7-22.6,27.3-24.2C908,47.4,912.3,35.7,907.2,28.2z"/>
<path class="st4" d="M933.3,26.5c-2.4,3.5-2.5,7.5-2.5,10.9c-0.2,11.2,5.1,19.5,6.6,21.7c1.6,2.3,10.7,15.8,25.9,15.4
	c1.4,0,15.7-0.7,22.8-13.5c4.7-8.4,3.6-17.4,3.1-21.3c-0.6-4.5-1.2-10.1-5.2-14.4c-3.2-3.4-7.2-4.1-15-5.3c-9.9-1.6-17.3-0.6-20.5,0
	C940.7,21.4,936.2,22.2,933.3,26.5z"/>
<path class="st5" d="M1003.1,26.9c-0.1-2.9,0.4-3.2,0-4c-0.8-1.8-3.5-1.6-6.4-2c-2.3-0.3-1.4-0.5-9.8-3.1c-7.4-2.3-11-3.5-13.9-3.9
	c-4.2-0.7-8.3-0.5-16.6,0c-6,0.3-9.1,0.5-12.7,1.5c-5,1.4-4.8,2.4-10.2,4c-7.2,2.2-12.9,2.1-14.8,2c-0.8,0-3.1-0.2-9.3-1.5
	c-10.7-2.3-11.8-3.7-18.7-5.1c-8.1-1.6-14.7-1.2-17.8-1c-5.2,0.3-9.5,1.1-15.2,2.3c-8.2,1.6-6.8,1.9-10.5,2.3
	c-4.6,0.4-7.4,0-9.3,2.3c-1.6,1.9-1.8,4.5-1.8,5.1c-0.1,1,0,3.1,1.1,5c0.9,1.4,1.6,1.6,2.7,2.8c1.4,1.4,2,3.1,3,6.6
	c1.3,4.8,1.8,8.1,2.3,10.4c0.7,3.6,1.7,8.7,4.3,13.6c3.1,5.9,7.3,9.3,9.1,10.6c5.7,4.1,11.1,4.9,13.9,5.3c2.3,0.3,7.6,0.7,13.9-1.3
	c7.9-2.5,12.8-7.3,14.8-9.3c3.7-3.7,5.9-7.3,7.7-10.4c2.2-3.7,3.4-5.5,4.1-8.1c1-3.6,0.6-5.4,2.3-8.1c0.5-0.7,2.3-3.7,4.8-3.5
	c1.4,0.1,2.5,1.1,3.9,3c3.2,4.5,3.7,8.4,5,12.1c1.6,4.7,3.9,7.6,7,11.6c3.2,4.1,7.1,9,13.6,11.9c6.3,2.7,11.9,2.1,17.3,1.5
	c3.7-0.4,7.3-0.8,11.6-3c2.3-1.2,7.7-3.9,11.1-10.1c1.2-2.2,2-4.8,3.4-9.8c0.7-2.4,1.3-4.9,2.5-10.1c0.8-3.2,2-6.3,2.7-9.6
	c0.3-1.4,0.6-2.9,1.8-4s2.3-0.8,3-2C1003.5,29.8,1003.2,29.3,1003.1,26.9z M906.6,50.6c-0.6,1.6-8.8,22.8-27.3,24.2
	c-2,0.1-14.6,0.9-23.2-10.1c-7.5-9.5-6.6-20.9-6.4-23.2c0.3-3.7,0.9-11.6,6.4-16.6c3.2-3,6.7-3.5,13.7-4.5c8.6-1.3,15.4-0.4,18.2,0
	c10.5,1.6,16.1,2.5,19.3,7.4C912.3,35.3,908,46.9,906.6,50.6z M986.1,61.3c-7.1,12.8-21.5,13.5-22.8,13.5
	c-15.2,0.5-24.4-13.1-25.9-15.4c-1.5-2.2-6.8-10.5-6.6-21.7c0.1-3.4,0.1-7.4,2.5-10.9c2.9-4.3,7.4-5.1,15.2-6.5
	c3.2-0.6,10.6-1.6,20.5,0c7.9,1.2,11.8,1.9,15,5.3c4,4.2,4.7,9.9,5.2,14.4C989.7,43.9,990.8,52.8,986.1,61.3z"/>
<path class="st8" d="M1074.4,29c-3.2-4.9-8.8-5.7-19.3-7.4c-2.8-0.4-9.6-1.3-18.2,0c-7,1-10.4,1.6-13.6,4.5c-5.4,5-6.1,13-6.4,16.6
	c-0.2,2.3-1.1,13.7,6.4,23.2c8.6,11,21.2,10.2,23.2,10.1c18.6-1.4,26.7-22.6,27.3-24.2C1075.2,48.2,1079.5,36.5,1074.4,29z"/>
<path class="st8" d="M1100.5,28.2c-2.4,3.5-2.5,7.5-2.5,10.9c-0.2,11.2,5.1,19.5,6.6,21.7c1.6,2.3,10.7,15.8,25.9,15.4
	c1.4,0,15.7-0.7,22.8-13.5c4.7-8.4,3.6-17.4,3.1-21.3c-0.6-4.5-1.2-10.1-5.2-14.4c-3.2-3.4-7.2-4.1-15-5.3c-9.9-1.6-17.3-0.6-20.5,0
	C1107.9,23.1,1103.4,23.9,1100.5,28.2z"/>
<path class="st7" d="M1170.3,28.1c-0.1-2.9,0.4-3.2,0-4c-0.8-1.8-3.5-1.6-6.4-2c-2.3-0.3-1.4-0.5-9.8-3.1c-7.4-2.3-11-3.5-13.9-3.9
	c-4.2-0.7-8.3-0.5-16.6,0c-6,0.3-9.1,0.5-12.7,1.5c-5,1.4-4.8,2.4-10.2,4c-7.2,2.2-12.9,2.1-14.8,2c-0.8,0-3.1-0.2-9.3-1.5
	c-10.7-2.3-11.8-3.7-18.7-5.1c-8.1-1.6-14.7-1.2-17.8-1c-5.2,0.3-9.5,1.1-15.2,2.3c-8.2,1.6-6.8,1.9-10.5,2.3
	c-4.6,0.4-7.4,0-9.3,2.3c-1.6,1.9-1.8,4.5-1.8,5.1c-0.1,1,0,3.1,1.1,5c0.9,1.4,1.6,1.6,2.7,2.8c1.4,1.4,2,3.1,3,6.6
	c1.3,4.8,1.8,8.1,2.3,10.4c0.7,3.6,1.7,8.7,4.3,13.6c3.1,5.9,7.3,9.3,9.1,10.6c5.7,4.1,11.1,4.9,13.9,5.3c2.3,0.3,7.6,0.7,13.9-1.3
	c7.9-2.5,12.8-7.3,14.8-9.3c3.7-3.7,5.9-7.3,7.7-10.4c2.2-3.7,3.4-5.5,4.1-8.1c1-3.6,0.6-5.4,2.3-8.1c0.5-0.7,2.3-3.7,4.8-3.5
	c1.4,0.1,2.5,1.1,3.9,3c3.2,4.5,3.7,8.4,5,12.1c1.6,4.7,3.9,7.6,7,11.6c3.2,4.1,7.1,9,13.6,11.9c6.3,2.7,11.9,2.1,17.3,1.5
	c3.7-0.4,7.3-0.8,11.6-3c2.3-1.2,7.7-3.9,11.1-10.1c1.2-2.2,2-4.8,3.4-9.8c0.7-2.4,1.3-4.9,2.5-10.1c0.8-3.2,2-6.3,2.7-9.6
	c0.3-1.4,0.6-2.9,1.8-4c1.2-1.1,2.3-0.8,3-2C1170.7,31,1170.4,30.5,1170.3,28.1z M1073.8,51.8c-0.6,1.6-8.8,22.8-27.3,24.2
	c-2,0.1-14.6,0.9-23.2-10.1c-7.5-9.5-6.6-20.9-6.4-23.2c0.3-3.7,0.9-11.6,6.4-16.6c3.2-3,6.7-3.5,13.7-4.5c8.6-1.3,15.4-0.4,18.2,0
	c10.5,1.6,16.1,2.5,19.3,7.4C1079.5,36.5,1075.2,48.1,1073.8,51.8z M1153.3,62.5c-7.1,12.8-21.5,13.5-22.8,13.5
	c-15.2,0.5-24.4-13.1-25.9-15.4c-1.5-2.2-6.8-10.5-6.6-21.7c0.1-3.4,0.1-7.4,2.5-10.9c2.9-4.3,7.4-5.1,15.2-6.5
	c3.2-0.6,10.6-1.6,20.5,0c7.9,1.2,11.8,1.9,15,5.3c4,4.2,4.7,9.9,5.2,14.4C1156.9,45.1,1158,54,1153.3,62.5z"/>
<path class="st0" d="M1910.7,32.3c-3.2-4.9-8.8-5.7-19.3-7.4c-2.8-0.4-9.6-1.3-18.2,0c-7,1-10.4,1.6-13.6,4.5
	c-5.4,5-6.1,13-6.4,16.6c-0.2,2.3-1.1,13.7,6.4,23.2c8.6,11,21.2,10.2,23.2,10.1c18.6-1.4,26.7-22.6,27.3-24.2
	C1911.5,51.5,1915.8,39.8,1910.7,32.3z"/>
<path class="st0" d="M1936.8,31.3c-2.4,3.5-2.5,7.5-2.5,10.9c-0.2,11.2,5.1,19.5,6.6,21.7c1.6,2.3,10.7,15.8,25.9,15.4
	c1.4,0,15.7-0.7,22.8-13.5c4.7-8.4,3.6-17.4,3.1-21.3c-0.6-4.5-1.2-10.1-5.2-14.4c-3.2-3.4-7.2-4.1-15-5.3c-9.9-1.6-17.3-0.6-20.5,0
	C1944.2,26.2,1939.7,27,1936.8,31.3z"/>
<path class="st1" d="M2006.6,31.4c-0.1-2.9,0.4-3.2,0-4c-0.8-1.8-3.5-1.6-6.4-2c-2.3-0.3-1.4-0.5-9.8-3.1c-7.4-2.3-11-3.5-13.9-3.9
	c-4.2-0.7-8.3-0.5-16.6,0c-6,0.3-9.1,0.5-12.7,1.5c-5,1.4-4.8,2.4-10.2,4c-7.2,2.2-12.9,2.1-14.8,2c-0.8,0-3.1-0.2-9.3-1.5
	c-10.7-2.3-11.8-3.7-18.7-5.1c-8.1-1.6-14.7-1.2-17.8-1c-5.2,0.3-9.5,1.1-15.2,2.3c-8.2,1.6-6.8,1.9-10.5,2.3
	c-4.6,0.4-7.4,0-9.3,2.3c-1.6,1.9-1.8,4.5-1.8,5.1c-0.1,1,0,3.1,1.1,5c0.9,1.4,1.6,1.6,2.7,2.8c1.4,1.4,2,3.1,3,6.6
	c1.3,4.8,1.8,8.1,2.3,10.4c0.7,3.6,1.7,8.7,4.3,13.6c3.1,5.9,7.3,9.3,9.1,10.6c5.7,4.1,11.1,4.9,13.9,5.3c2.3,0.3,7.6,0.7,13.9-1.3
	c7.9-2.5,12.8-7.3,14.8-9.3c3.7-3.7,5.9-7.3,7.7-10.4c2.2-3.7,3.4-5.5,4.1-8.1c1-3.6,0.6-5.4,2.3-8.1c0.5-0.7,2.3-3.7,4.8-3.5
	c1.4,0.1,2.5,1.1,3.9,3c3.2,4.5,3.7,8.4,5,12.1c1.6,4.7,3.9,7.6,7,11.6c3.2,4.1,7.1,9,13.6,11.9c6.3,2.7,11.9,2.1,17.3,1.5
	c3.7-0.4,7.3-0.8,11.6-3c2.3-1.2,7.7-3.9,11.1-10.1c1.2-2.2,2-4.8,3.4-9.8c0.7-2.4,1.3-4.9,2.5-10.1c0.8-3.2,2-6.3,2.7-9.6
	c0.3-1.4,0.6-2.9,1.8-4c1.2-1.1,2.3-0.8,3-2C2007,34.3,2006.7,33.8,2006.6,31.4z M1910.1,55.1c-0.6,1.6-8.8,22.8-27.3,24.2
	c-2,0.1-14.6,0.9-23.2-10.1c-7.5-9.5-6.6-20.9-6.4-23.2c0.3-3.7,0.9-11.6,6.4-16.6c3.2-3,6.7-3.5,13.7-4.5c8.6-1.3,15.4-0.4,18.2,0
	c10.5,1.6,16.1,2.5,19.3,7.4C1915.8,39.8,1911.5,51.4,1910.1,55.1z M1989.6,65.8c-7.1,12.8-21.5,13.5-22.8,13.5
	c-15.2,0.5-24.4-13.1-25.9-15.4c-1.5-2.2-6.8-10.5-6.6-21.7c0.1-3.4,0.1-7.4,2.5-10.9c2.9-4.3,7.4-5.1,15.2-6.5
	c3.2-0.6,10.6-1.6,20.5,0c7.9,1.2,11.8,1.9,15,5.3c4,4.2,4.7,9.9,5.2,14.4C1993.2,48.4,1994.3,57.3,1989.6,65.8z"/>
<path class="st2" d="M1408.7,29c-3.2-4.9-8.8-5.7-19.3-7.4c-2.8-0.4-9.6-1.3-18.2,0c-7,1-10.4,1.6-13.6,4.5c-5.4,5-6.1,13-6.4,16.6
	c-0.2,2.3-1.1,13.7,6.4,23.2c8.6,11,21.2,10.2,23.2,10.1c18.6-1.4,26.7-22.6,27.3-24.2C1409.5,48.2,1413.8,36.5,1408.7,29z"/>
<path class="st2" d="M1434.8,28.6c-2.4,3.5-2.5,7.5-2.5,10.9c-0.2,11.2,5.1,19.5,6.6,21.7c1.6,2.3,10.7,15.8,25.9,15.4
	c1.4,0,15.7-0.7,22.8-13.5c4.7-8.4,3.6-17.4,3.1-21.3c-0.6-4.5-1.2-10.1-5.2-14.4c-3.2-3.4-7.2-4.1-15-5.3c-9.9-1.6-17.3-0.6-20.5,0
	C1442.2,23.5,1437.7,24.3,1434.8,28.6z"/>
<path class="st3" d="M1504.6,28.5c-0.1-2.9,0.4-3.2,0-4c-0.8-1.8-3.5-1.6-6.4-2c-2.3-0.3-1.4-0.5-9.8-3.1c-7.4-2.3-11-3.5-13.9-3.9
	c-4.2-0.7-8.3-0.5-16.6,0c-6,0.3-9.1,0.5-12.7,1.5c-5,1.4-4.8,2.4-10.2,4c-7.2,2.2-12.9,2.1-14.8,2c-0.8,0-3.1-0.2-9.3-1.5
	c-10.7-2.3-11.8-3.7-18.7-5.1c-8.1-1.6-14.7-1.2-17.8-1c-5.2,0.3-9.5,1.1-15.2,2.3c-8.2,1.6-6.8,1.9-10.5,2.3
	c-4.6,0.4-7.4,0-9.3,2.3c-1.6,1.9-1.8,4.5-1.8,5.1c-0.1,1,0,3.1,1.1,5c0.9,1.4,1.6,1.6,2.7,2.8c1.4,1.4,2,3.1,3,6.6
	c1.3,4.8,1.8,8.1,2.3,10.4c0.7,3.6,1.7,8.7,4.3,13.6c3.1,5.9,7.3,9.3,9.1,10.6c5.7,4.1,11.1,4.9,13.9,5.3c2.3,0.3,7.6,0.7,13.9-1.3
	c7.9-2.5,12.8-7.3,14.8-9.3c3.7-3.7,5.9-7.3,7.7-10.4c2.2-3.7,3.4-5.5,4.1-8.1c1-3.6,0.6-5.4,2.3-8.1c0.5-0.7,2.3-3.7,4.8-3.5
	c1.4,0.1,2.5,1.1,3.9,3c3.2,4.5,3.7,8.4,5,12.1c1.6,4.7,3.9,7.6,7,11.6c3.2,4.1,7.1,9,13.6,11.9c6.3,2.7,11.9,2.1,17.3,1.5
	c3.7-0.4,7.3-0.8,11.6-3c2.3-1.2,7.7-3.9,11.1-10.1c1.2-2.2,2-4.8,3.4-9.8c0.7-2.4,1.3-4.9,2.5-10.1c0.8-3.2,2-6.3,2.7-9.6
	c0.3-1.4,0.6-2.9,1.8-4s2.3-0.8,3-2C1505,31.4,1504.7,30.9,1504.6,28.5z M1408.1,52.2c-0.6,1.6-8.8,22.8-27.3,24.2
	c-2,0.1-14.6,0.9-23.2-10.1c-7.5-9.5-6.6-20.9-6.4-23.2c0.3-3.7,0.9-11.6,6.4-16.6c3.2-3,6.7-3.5,13.7-4.5c8.6-1.3,15.4-0.4,18.2,0
	c10.5,1.6,16.1,2.5,19.3,7.4C1413.8,36.9,1409.5,48.5,1408.1,52.2z M1487.6,62.9c-7.1,12.8-21.5,13.5-22.8,13.5
	c-15.2,0.5-24.4-13.1-25.9-15.4c-1.5-2.2-6.8-10.5-6.6-21.7c0.1-3.4,0.1-7.4,2.5-10.9c2.9-4.3,7.4-5.1,15.2-6.5
	c3.2-0.6,10.6-1.6,20.5,0c7.9,1.2,11.8,1.9,15,5.3c4,4.2,4.7,9.9,5.2,14.4C1491.2,45.5,1492.3,54.4,1487.6,62.9z"/>
<path class="st4" d="M1576.4,31.1c-3.2-4.9-8.8-5.7-19.3-7.4c-2.8-0.4-9.6-1.3-18.2,0c-7,1-10.4,1.6-13.6,4.5
	c-5.4,5-6.1,13-6.4,16.6c-0.2,2.3-1.1,13.7,6.4,23.2c8.6,11,21.2,10.2,23.2,10.1c18.6-1.4,26.7-22.6,27.3-24.2
	C1577.2,50.3,1581.5,38.6,1576.4,31.1z"/>
<path class="st4" d="M1602.5,29.4c-2.4,3.5-2.5,7.5-2.5,10.9c-0.2,11.2,5.1,19.5,6.6,21.7c1.6,2.3,10.7,15.8,25.9,15.4
	c1.4,0,15.7-0.7,22.8-13.5c4.7-8.4,3.6-17.4,3.1-21.3c-0.6-4.5-1.2-10.1-5.2-14.4c-3.2-3.4-7.2-4.1-15-5.3c-9.9-1.6-17.3-0.6-20.5,0
	C1609.9,24.3,1605.4,25.1,1602.5,29.4z"/>
<path class="st5" d="M1672.3,29.8c-0.1-2.9,0.4-3.2,0-4c-0.8-1.8-3.5-1.6-6.4-2c-2.3-0.3-1.4-0.5-9.8-3.1c-7.4-2.3-11-3.5-13.9-3.9
	c-4.2-0.7-8.3-0.5-16.6,0c-6,0.3-9.1,0.5-12.7,1.5c-5,1.4-4.8,2.4-10.2,4c-7.2,2.2-12.9,2.1-14.8,2c-0.8,0-3.1-0.2-9.3-1.5
	c-10.7-2.3-11.8-3.7-18.7-5.1c-8.1-1.6-14.7-1.2-17.8-1c-5.2,0.3-9.5,1.1-15.2,2.3c-8.2,1.6-6.8,1.9-10.5,2.3
	c-4.6,0.4-7.4,0-9.3,2.3c-1.6,1.9-1.8,4.5-1.8,5.1c-0.1,1,0,3.1,1.1,5c0.9,1.4,1.6,1.6,2.7,2.8c1.4,1.4,2,3.1,3,6.6
	c1.3,4.8,1.8,8.1,2.3,10.4c0.7,3.6,1.7,8.7,4.3,13.6c3.1,5.9,7.3,9.3,9.1,10.6c5.7,4.1,11.1,4.9,13.9,5.3c2.3,0.3,7.6,0.7,13.9-1.3
	c7.9-2.5,12.8-7.3,14.8-9.3c3.7-3.7,5.9-7.3,7.7-10.4c2.2-3.7,3.4-5.5,4.1-8.1c1-3.6,0.6-5.4,2.3-8.1c0.5-0.7,2.3-3.7,4.8-3.5
	c1.4,0.1,2.5,1.1,3.9,3c3.2,4.5,3.7,8.4,5,12.1c1.6,4.7,3.9,7.6,7,11.6c3.2,4.1,7.1,9,13.6,11.9c6.3,2.7,11.9,2.1,17.3,1.5
	c3.7-0.4,7.3-0.8,11.6-3c2.3-1.2,7.7-3.9,11.1-10.1c1.2-2.2,2-4.8,3.4-9.8c0.7-2.4,1.3-4.9,2.5-10.1c0.8-3.2,2-6.3,2.7-9.6
	c0.3-1.4,0.6-2.9,1.8-4c1.2-1.1,2.3-0.8,3-2C1672.7,32.7,1672.4,32.2,1672.3,29.8z M1575.8,53.5c-0.6,1.6-8.8,22.8-27.3,24.2
	c-2,0.1-14.6,0.9-23.2-10.1c-7.5-9.5-6.6-20.9-6.4-23.2c0.3-3.7,0.9-11.6,6.4-16.6c3.2-3,6.7-3.5,13.7-4.5c8.6-1.3,15.4-0.4,18.2,0
	c10.5,1.6,16.1,2.5,19.3,7.4C1581.5,38.2,1577.2,49.8,1575.8,53.5z M1655.3,64.2c-7.1,12.8-21.5,13.5-22.8,13.5
	c-15.2,0.5-24.4-13.1-25.9-15.4c-1.5-2.2-6.8-10.5-6.6-21.7c0.1-3.4,0.1-7.4,2.5-10.9c2.9-4.3,7.4-5.1,15.2-6.5
	c3.2-0.6,10.6-1.6,20.5,0c7.9,1.2,11.8,1.9,15,5.3c4,4.2,4.7,9.9,5.2,14.4C1658.9,46.8,1660,55.7,1655.3,64.2z"/>
<path class="st6" d="M1743.6,31.9c-3.2-4.9-8.8-5.7-19.3-7.4c-2.8-0.4-9.6-1.3-18.2,0c-7,1-10.4,1.6-13.6,4.5
	c-5.4,5-6.1,13-6.4,16.6c-0.2,2.3-1.1,13.7,6.4,23.2c8.6,11,21.2,10.2,23.2,10.1c18.6-1.4,26.7-22.6,27.3-24.2
	C1744.4,51.1,1748.7,39.4,1743.6,31.9z"/>
<path class="st6" d="M1769.7,31.1c-2.4,3.5-2.5,7.5-2.5,10.9c-0.2,11.2,5.1,19.5,6.6,21.7c1.6,2.3,10.7,15.8,25.9,15.4
	c1.4,0,15.7-0.7,22.8-13.5c4.7-8.4,3.6-17.4,3.1-21.3c-0.6-4.5-1.2-10.1-5.2-14.4c-3.2-3.4-7.2-4.1-15-5.3c-9.9-1.6-17.3-0.6-20.5,0
	C1777.1,26,1772.6,26.8,1769.7,31.1z"/>
<path class="st7" d="M1839.5,31c-0.1-2.9,0.4-3.2,0-4c-0.8-1.8-3.5-1.6-6.4-2c-2.3-0.3-1.4-0.5-9.8-3.1c-7.4-2.3-11-3.5-13.9-3.9
	c-4.2-0.7-8.3-0.5-16.6,0c-6,0.3-9.1,0.5-12.7,1.5c-5,1.4-4.8,2.4-10.2,4c-7.2,2.2-12.9,2.1-14.8,2c-0.8,0-3.1-0.2-9.3-1.5
	c-10.7-2.3-11.8-3.7-18.7-5.1c-8.1-1.6-14.7-1.2-17.8-1c-5.2,0.3-9.5,1.1-15.2,2.3c-8.2,1.6-6.8,1.9-10.5,2.3
	c-4.6,0.4-7.4,0-9.3,2.3c-1.6,1.9-1.8,4.5-1.8,5.1c-0.1,1,0,3.1,1.1,5c0.9,1.4,1.6,1.6,2.7,2.8c1.4,1.4,2,3.1,3,6.6
	c1.3,4.8,1.8,8.1,2.3,10.4c0.7,3.6,1.7,8.7,4.3,13.6c3.1,5.9,7.3,9.3,9.1,10.6c5.7,4.1,11.1,4.9,13.9,5.3c2.3,0.3,7.6,0.7,13.9-1.3
	c7.9-2.5,12.8-7.3,14.8-9.3c3.7-3.7,5.9-7.3,7.7-10.4c2.2-3.7,3.4-5.5,4.1-8.1c1-3.6,0.6-5.4,2.3-8.1c0.5-0.7,2.3-3.7,4.8-3.5
	c1.4,0.1,2.5,1.1,3.9,3c3.2,4.5,3.7,8.4,5,12.1c1.6,4.7,3.9,7.6,7,11.6c3.2,4.1,7.1,9,13.6,11.9c6.3,2.7,11.9,2.1,17.3,1.5
	c3.7-0.4,7.3-0.8,11.6-3c2.3-1.2,7.7-3.9,11.1-10.1c1.2-2.2,2-4.8,3.4-9.8c0.7-2.4,1.3-4.9,2.5-10.1c0.8-3.2,2-6.3,2.7-9.6
	c0.3-1.4,0.6-2.9,1.8-4c1.2-1.1,2.3-0.8,3-2C1839.9,33.9,1839.6,33.4,1839.5,31z M1743,54.7c-0.6,1.6-8.8,22.8-27.3,24.2
	c-2,0.1-14.6,0.9-23.2-10.1c-7.5-9.5-6.6-20.9-6.4-23.2c0.3-3.7,0.9-11.6,6.4-16.6c3.2-3,6.7-3.5,13.7-4.5c8.6-1.3,15.4-0.4,18.2,0
	c10.5,1.6,16.1,2.5,19.3,7.4C1748.7,39.4,1744.4,51,1743,54.7z M1822.5,65.4c-7.1,12.8-21.5,13.5-22.8,13.5
	c-15.2,0.5-24.4-13.1-25.9-15.4c-1.5-2.2-6.8-10.5-6.6-21.7c0.1-3.4,0.1-7.4,2.5-10.9c2.9-4.3,7.4-5.1,15.2-6.5
	c3.2-0.6,10.6-1.6,20.5,0c7.9,1.2,11.8,1.9,15,5.3c4,4.2,4.7,9.9,5.2,14.4C1826.1,48,1827.2,56.9,1822.5,65.4z"/>
<path class="st0" d="M2579.7,36c-3.2-4.9-8.8-5.7-19.3-7.4c-2.8-0.4-9.6-1.3-18.2,0c-7,1-10.4,1.6-13.6,4.5c-5.4,5-6.1,13-6.4,16.6
	c-0.2,2.3-1.1,13.7,6.4,23.2c8.6,11,21.2,10.2,23.2,10.1c18.6-1.4,26.7-22.6,27.3-24.2C2580.5,55.2,2584.8,43.5,2579.7,36z"/>
<path class="st0" d="M2605.8,35c-2.4,3.5-2.5,7.5-2.5,10.9c-0.2,11.2,5.1,19.5,6.6,21.7c1.6,2.3,10.7,15.8,25.9,15.4
	c1.4,0,15.7-0.7,22.8-13.5c4.7-8.4,3.6-17.4,3.1-21.3c-0.6-4.5-1.2-10.1-5.2-14.4c-3.2-3.4-7.2-4.1-15-5.3c-9.9-1.6-17.3-0.6-20.5,0
	C2613.2,29.9,2608.7,30.7,2605.8,35z"/>
<path class="st1" d="M2675.6,35.1c-0.1-2.9,0.4-3.2,0-4c-0.8-1.8-3.5-1.6-6.4-2c-2.3-0.3-1.4-0.5-9.8-3.1c-7.4-2.3-11-3.5-13.9-3.9
	c-4.2-0.7-8.3-0.5-16.6,0c-6,0.3-9.1,0.5-12.7,1.5c-5,1.4-4.8,2.4-10.2,4c-7.2,2.2-12.9,2.1-14.8,2c-0.8,0-3.1-0.2-9.3-1.5
	c-10.7-2.3-11.8-3.7-18.7-5.1c-8.1-1.6-14.7-1.2-17.8-1c-5.2,0.3-9.5,1.1-15.2,2.3c-8.2,1.6-6.8,1.9-10.5,2.3
	c-4.6,0.4-7.4,0-9.3,2.3c-1.6,1.9-1.8,4.5-1.8,5.1c-0.1,1,0,3.1,1.1,5c0.9,1.4,1.6,1.6,2.7,2.8c1.4,1.4,2,3.1,3,6.6
	c1.3,4.8,1.8,8.1,2.3,10.4c0.7,3.6,1.7,8.7,4.3,13.6c3.1,5.9,7.3,9.3,9.1,10.6c5.7,4.1,11.1,4.9,13.9,5.3c2.3,0.3,7.6,0.7,13.9-1.3
	c7.9-2.5,12.8-7.3,14.8-9.3c3.7-3.7,5.9-7.3,7.7-10.4c2.2-3.7,3.4-5.5,4.1-8.1c1-3.6,0.6-5.4,2.3-8.1c0.5-0.7,2.3-3.7,4.8-3.5
	c1.4,0.1,2.5,1.1,3.9,3c3.2,4.5,3.7,8.4,5,12.1c1.6,4.7,3.9,7.6,7,11.6c3.2,4.1,7.1,9,13.6,11.9c6.3,2.7,11.9,2.1,17.3,1.5
	c3.7-0.4,7.3-0.8,11.6-3c2.3-1.2,7.7-3.9,11.1-10.1c1.2-2.2,2-4.8,3.4-9.8c0.7-2.4,1.3-4.9,2.5-10.1c0.8-3.2,2-6.3,2.7-9.6
	c0.3-1.4,0.6-2.9,1.8-4s2.3-0.8,3-2C2676,38,2675.7,37.5,2675.6,35.1z M2579.1,58.8c-0.6,1.6-8.8,22.8-27.3,24.2
	c-2,0.1-14.6,0.9-23.2-10.1c-7.5-9.5-6.6-20.9-6.4-23.2c0.3-3.7,0.9-11.6,6.4-16.6c3.2-3,6.7-3.5,13.7-4.5c8.6-1.3,15.4-0.4,18.2,0
	c10.5,1.6,16.1,2.5,19.3,7.4C2584.8,43.5,2580.5,55.1,2579.1,58.8z M2658.6,69.5c-7.1,12.8-21.5,13.5-22.8,13.5
	c-15.2,0.5-24.4-13.1-25.9-15.4c-1.5-2.2-6.8-10.5-6.6-21.7c0.1-3.4,0.1-7.4,2.5-10.9c2.9-4.3,7.4-5.1,15.2-6.5
	c3.2-0.6,10.6-1.6,20.5,0c7.9,1.2,11.8,1.9,15,5.3c4,4.2,4.7,9.9,5.2,14.4C2662.2,52.1,2663.3,61,2658.6,69.5z"/>
<path class="st2" d="M2077.8,32.7c-3.2-4.9-8.8-5.7-19.3-7.4c-2.8-0.4-9.6-1.3-18.2,0c-7,1-10.4,1.6-13.6,4.5
	c-5.4,5-6.1,13-6.4,16.6c-0.2,2.3-1.1,13.7,6.4,23.2c8.6,11,21.2,10.2,23.2,10.1c18.6-1.4,26.7-22.6,27.3-24.2
	C2078.6,51.9,2082.9,40.2,2077.8,32.7z"/>
<path class="st2" d="M2103.9,32.3c-2.4,3.5-2.5,7.5-2.5,10.9c-0.2,11.2,5.1,19.5,6.6,21.7c1.6,2.3,10.7,15.8,25.9,15.4
	c1.4,0,15.7-0.7,22.8-13.5c4.7-8.4,3.6-17.4,3.1-21.3c-0.6-4.5-1.2-10.1-5.2-14.4c-3.2-3.4-7.2-4.1-15-5.3c-9.9-1.6-17.3-0.6-20.5,0
	C2111.3,27.2,2106.8,28,2103.9,32.3z"/>
<path class="st3" d="M2173.7,32.2c-0.1-2.9,0.4-3.2,0-4c-0.8-1.8-3.5-1.6-6.4-2c-2.3-0.3-1.4-0.5-9.8-3.1c-7.4-2.3-11-3.5-13.9-3.9
	c-4.2-0.7-8.3-0.5-16.6,0c-6,0.3-9.1,0.5-12.7,1.5c-5,1.4-4.8,2.4-10.2,4c-7.2,2.2-12.9,2.1-14.8,2c-0.8,0-3.1-0.2-9.3-1.5
	c-10.7-2.3-11.8-3.7-18.7-5.1c-8.1-1.6-14.7-1.2-17.8-1c-5.2,0.3-9.5,1.1-15.2,2.3c-8.2,1.6-6.8,1.9-10.5,2.3
	c-4.6,0.4-7.4,0-9.3,2.3c-1.6,1.9-1.8,4.5-1.8,5.1c-0.1,1,0,3.1,1.1,5c0.9,1.4,1.6,1.6,2.7,2.8c1.4,1.4,2,3.1,3,6.6
	c1.3,4.8,1.8,8.1,2.3,10.4c0.7,3.6,1.7,8.7,4.3,13.6c3.1,5.9,7.3,9.3,9.1,10.6c5.7,4.1,11.1,4.9,13.9,5.3c2.3,0.3,7.6,0.7,13.9-1.3
	c7.9-2.5,12.8-7.3,14.8-9.3c3.7-3.7,5.9-7.3,7.7-10.4c2.2-3.7,3.4-5.5,4.1-8.1c1-3.6,0.6-5.4,2.3-8.1c0.5-0.7,2.3-3.7,4.8-3.5
	c1.4,0.1,2.5,1.1,3.9,3c3.2,4.5,3.7,8.4,5,12.1c1.6,4.7,3.9,7.6,7,11.6c3.2,4.1,7.1,9,13.6,11.9c6.3,2.7,11.9,2.1,17.3,1.5
	c3.7-0.4,7.3-0.8,11.6-3c2.3-1.2,7.7-3.9,11.1-10.1c1.2-2.2,2-4.8,3.4-9.8c0.7-2.4,1.3-4.9,2.5-10.1c0.8-3.2,2-6.3,2.7-9.6
	c0.3-1.4,0.6-2.9,1.8-4s2.3-0.8,3-2C2174.1,35.1,2173.8,34.6,2173.7,32.2z M2077.2,55.9c-0.6,1.6-8.8,22.8-27.3,24.2
	c-2,0.1-14.6,0.9-23.2-10.1c-7.5-9.5-6.6-20.9-6.4-23.2c0.3-3.7,0.9-11.6,6.4-16.6c3.2-3,6.7-3.5,13.7-4.5c8.6-1.3,15.4-0.4,18.2,0
	c10.5,1.6,16.1,2.5,19.3,7.4C2082.9,40.6,2078.6,52.2,2077.2,55.9z M2156.7,66.6c-7.1,12.8-21.5,13.5-22.8,13.5
	c-15.2,0.5-24.4-13.1-25.9-15.4c-1.5-2.2-6.8-10.5-6.6-21.7c0.1-3.4,0.1-7.4,2.5-10.9c2.9-4.3,7.4-5.1,15.2-6.5
	c3.2-0.6,10.6-1.6,20.5,0c7.9,1.2,11.8,1.9,15,5.3c4,4.2,4.7,9.9,5.2,14.4C2160.3,49.2,2161.4,58.1,2156.7,66.6z"/>
<path class="st4" d="M2245.4,34.7c-3.2-4.9-8.8-5.7-19.3-7.4c-2.8-0.4-9.6-1.3-18.2,0c-7,1-10.4,1.6-13.6,4.5
	c-5.4,5-6.1,13-6.4,16.6c-0.2,2.3-1.1,13.7,6.4,23.2c8.6,11,21.2,10.2,23.2,10.1c18.6-1.4,26.7-22.6,27.3-24.2
	C2246.2,53.9,2250.5,42.2,2245.4,34.7z"/>
<path class="st4" d="M2271.5,33.1c-2.4,3.5-2.5,7.5-2.5,10.9c-0.2,11.2,5.1,19.5,6.6,21.7c1.6,2.3,10.7,15.8,25.9,15.4
	c1.4,0,15.7-0.7,22.8-13.5c4.7-8.4,3.6-17.4,3.1-21.3c-0.6-4.5-1.2-10.1-5.2-14.4c-3.2-3.4-7.2-4.1-15-5.3c-9.9-1.6-17.3-0.6-20.5,0
	C2278.9,28,2274.4,28.8,2271.5,33.1z"/>
<path class="st5" d="M2341.3,33.4c-0.1-2.9,0.4-3.2,0-4c-0.8-1.8-3.5-1.6-6.4-2c-2.3-0.3-1.4-0.5-9.8-3.1c-7.4-2.3-11-3.5-13.9-3.9
	c-4.2-0.7-8.3-0.5-16.6,0c-6,0.3-9.1,0.5-12.7,1.5c-5,1.4-4.8,2.4-10.2,4c-7.2,2.2-12.9,2.1-14.8,2c-0.8,0-3.1-0.2-9.3-1.5
	c-10.7-2.3-11.8-3.7-18.7-5.1c-8.1-1.6-14.7-1.2-17.8-1c-5.2,0.3-9.5,1.1-15.2,2.3c-8.2,1.6-6.8,1.9-10.5,2.3
	c-4.6,0.4-7.4,0-9.3,2.3c-1.6,1.9-1.8,4.5-1.8,5.1c-0.1,1,0,3.1,1.1,5c0.9,1.4,1.6,1.6,2.7,2.8c1.4,1.4,2,3.1,3,6.6
	c1.3,4.8,1.8,8.1,2.3,10.4c0.7,3.6,1.7,8.7,4.3,13.6c3.1,5.9,7.3,9.3,9.1,10.6c5.7,4.1,11.1,4.9,13.9,5.3c2.3,0.3,7.6,0.7,13.9-1.3
	c7.9-2.5,12.8-7.3,14.8-9.3c3.7-3.7,5.9-7.3,7.7-10.4c2.2-3.7,3.4-5.5,4.1-8.1c1-3.6,0.6-5.4,2.3-8.1c0.5-0.7,2.3-3.7,4.8-3.5
	c1.4,0.1,2.5,1.1,3.9,3c3.2,4.5,3.7,8.4,5,12.1c1.6,4.7,3.9,7.6,7,11.6c3.2,4.1,7.1,9,13.6,11.9c6.3,2.7,11.9,2.1,17.3,1.5
	c3.7-0.4,7.3-0.8,11.6-3c2.3-1.2,7.7-3.9,11.1-10.1c1.2-2.2,2-4.8,3.4-9.8c0.7-2.4,1.3-4.9,2.5-10.1c0.8-3.2,2-6.3,2.7-9.6
	c0.3-1.4,0.6-2.9,1.8-4c1.2-1.1,2.3-0.8,3-2C2341.7,36.3,2341.4,35.8,2341.3,33.4z M2244.8,57.1c-0.6,1.6-8.8,22.8-27.3,24.2
	c-2,0.1-14.6,0.9-23.2-10.1c-7.5-9.5-6.6-20.9-6.4-23.2c0.3-3.7,0.9-11.6,6.4-16.6c3.2-3,6.7-3.5,13.7-4.5c8.6-1.3,15.4-0.4,18.2,0
	c10.5,1.6,16.1,2.5,19.3,7.4C2250.5,41.8,2246.2,53.4,2244.8,57.1z M2324.3,67.8c-7.1,12.8-21.5,13.5-22.8,13.5
	c-15.2,0.5-24.4-13.1-25.9-15.4c-1.5-2.2-6.8-10.5-6.6-21.7c0.1-3.4,0.1-7.4,2.5-10.9c2.9-4.3,7.4-5.1,15.2-6.5
	c3.2-0.6,10.6-1.6,20.5,0c7.9,1.2,11.8,1.9,15,5.3c4,4.2,4.7,9.9,5.2,14.4C2327.9,50.4,2329,59.3,2324.3,67.8z"/>
<path class="st6" d="M2412.6,35.6c-3.2-4.9-8.8-5.7-19.3-7.4c-2.8-0.4-9.6-1.3-18.2,0c-7,1-10.4,1.6-13.6,4.5
	c-5.4,5-6.1,13-6.4,16.6c-0.2,2.3-1.1,13.7,6.4,23.2c8.6,11,21.2,10.2,23.2,10.1c18.6-1.4,26.7-22.6,27.3-24.2
	C2413.4,54.8,2417.7,43.1,2412.6,35.6z"/>
<path class="st6" d="M2438.7,34.8c-2.4,3.5-2.5,7.5-2.5,10.9c-0.2,11.2,5.1,19.5,6.6,21.7c1.6,2.3,10.7,15.8,25.9,15.4
	c1.4,0,15.7-0.7,22.8-13.5c4.7-8.4,3.6-17.4,3.1-21.3c-0.6-4.5-1.2-10.1-5.2-14.4c-3.2-3.4-7.2-4.1-15-5.3c-9.9-1.6-17.3-0.6-20.5,0
	C2446.1,29.7,2441.6,30.5,2438.7,34.8z"/>
<path class="st7" d="M2508.5,34.7c-0.1-2.9,0.4-3.2,0-4c-0.8-1.8-3.5-1.6-6.4-2c-2.3-0.3-1.4-0.5-9.8-3.1c-7.4-2.3-11-3.5-13.9-3.9
	c-4.2-0.7-8.3-0.5-16.6,0c-6,0.3-9.1,0.5-12.7,1.5c-5,1.4-4.8,2.4-10.2,4c-7.2,2.2-12.9,2.1-14.8,2c-0.8,0-3.1-0.2-9.3-1.5
	c-10.7-2.3-11.8-3.7-18.7-5.1c-8.1-1.6-14.7-1.2-17.8-1c-5.2,0.3-9.5,1.1-15.2,2.3c-8.2,1.6-6.8,1.9-10.5,2.3
	c-4.6,0.4-7.4,0-9.3,2.3c-1.6,1.9-1.8,4.5-1.8,5.1c-0.1,1,0,3.1,1.1,5c0.9,1.4,1.6,1.6,2.7,2.8c1.4,1.4,2,3.1,3,6.6
	c1.3,4.8,1.8,8.1,2.3,10.4c0.7,3.6,1.7,8.7,4.3,13.6c3.1,5.9,7.3,9.3,9.1,10.6c5.7,4.1,11.1,4.9,13.9,5.3c2.3,0.3,7.6,0.7,13.9-1.3
	c7.9-2.5,12.8-7.3,14.8-9.3c3.7-3.7,5.9-7.3,7.7-10.4c2.2-3.7,3.4-5.5,4.1-8.1c1-3.6,0.6-5.4,2.3-8.1c0.5-0.7,2.3-3.7,4.8-3.5
	c1.4,0.1,2.5,1.1,3.9,3c3.2,4.5,3.7,8.4,5,12.1c1.6,4.7,3.9,7.6,7,11.6c3.2,4.1,7.1,9,13.6,11.9c6.3,2.7,11.9,2.1,17.3,1.5
	c3.7-0.4,7.3-0.8,11.6-3c2.3-1.2,7.7-3.9,11.1-10.1c1.2-2.2,2-4.8,3.4-9.8c0.7-2.4,1.3-4.9,2.5-10.1c0.8-3.2,2-6.3,2.7-9.6
	c0.3-1.4,0.6-2.9,1.8-4c1.2-1.1,2.3-0.8,3-2C2508.9,37.6,2508.6,37.1,2508.5,34.7z M2412,58.4c-0.6,1.6-8.8,22.8-27.3,24.2
	c-2,0.1-14.6,0.9-23.2-10.1c-7.5-9.5-6.6-20.9-6.4-23.2c0.3-3.7,0.9-11.6,6.4-16.6c3.2-3,6.7-3.5,13.7-4.5c8.6-1.3,15.4-0.4,18.2,0
	c10.5,1.6,16.1,2.5,19.3,7.4C2417.7,43.1,2413.4,54.7,2412,58.4z M2491.5,69.1c-7.1,12.8-21.5,13.5-22.8,13.5
	c-15.2,0.5-24.4-13.1-25.9-15.4c-1.5-2.2-6.8-10.5-6.6-21.7c0.1-3.4,0.1-7.4,2.5-10.9c2.9-4.3,7.4-5.1,15.2-6.5
	c3.2-0.6,10.6-1.6,20.5,0c7.9,1.2,11.8,1.9,15,5.3c4,4.2,4.7,9.9,5.2,14.4C2495.1,51.7,2496.2,60.6,2491.5,69.1z"/>
</svg>
