<?xml version="1.0" encoding="utf-8"?>
<!-- Generator: Adobe Illustrator 26.0.1, SVG Export Plug-In . SVG Version: 6.00 Build 0)  -->
<svg version="1.1" id="Layer_1" xmlns="http://www.w3.org/2000/svg" xmlns:xlink="http://www.w3.org/1999/xlink" x="0px" y="0px"
	 viewBox="0 0 100 100" style="enable-background:new 0 0 100 100;" xml:space="preserve">
<style type="text/css">
	.st0{fill:#FFFFFF;stroke:#FFFFFF;stroke-miterlimit:10;}
	.st1{fill:none;stroke:#FFFFFF;stroke-miterlimit:10;}
</style>
<image style="display:none;overflow:visible;enable-background:new    ;" width="560" height="560" xlink:href="A9F9778B.png"  transform="matrix(1 0 0 1 -229.6378 -230.0551)">
</image>
<path class="st0" d="M41.9,69.9c0.3,0.3-0.1,0.6-0.1,2.2c0,1.5,0,2.3,0.1,2.7c0,0.2,0.1,0.6-0.1,0.9c-0.1,0.1-0.3,0.4-0.9,0.4
	c-1,0.1-1.9-0.4-2.5-0.7c-1.9-1.1-2.8-1.6-2.9-1.7c-2.4-1.8-4.2-3.1-6.1-5.4c-1.8-2.2-2.9-4.1-3.2-4.6c-2.7-5.1-3-10-3-11.9
	c-0.1-1.9-0.3-7.2,2.3-12.9c4.6-10.4,14.4-13.6,15.8-14.1c2.2-0.7,9.3-2.5,17.1,1.2c1.9,0.9,7.7,3.9,11.6,11.2c1,1.9,5,9.8,2.7,19.7
	c0,0-2,8.7-9.1,14.9c-0.5,0.4-1.5,1.1-3.4,2.5c0,0-1.6,1.1-3.9,1.9c-0.2,0.1-0.6,0.2-1,0s-0.6-0.5-0.7-0.7c-0.5-0.9-0.4-2.2-0.3-4.1
	c0.1-2,0-1.5,0.1-3.5c0.1-1.1,0.1-1.6-0.1-2.4c-0.1-0.5-0.3-1.2-0.8-2c-0.4-0.5-0.6-0.7-0.6-0.9c0.1-0.4,1.1-0.3,2.2-0.5
	c1.6-0.3,2.8-0.9,3.4-1.3c1.7-1,2.7-2.2,3-2.6c0.3-0.4,1.1-1.5,1.8-3.2c0.9-2.3,0.9-4.4,0.9-5.3c0-1.7-0.4-3-0.6-3.8
	c-0.2-0.9-0.4-1.4-0.7-2c-0.6-1-1.1-1-1.3-1.8c-0.2-0.6,0.1-0.7,0.3-2.2c0.1-0.7,0.1-1.4,0-2.3c-0.1-0.7-0.2-0.7-0.3-1.6
	c-0.1-0.7-0.1-1-0.3-1.2c-0.3-0.3-0.8-0.1-1.5,0.1c-1.9,0.6-2.9,1-3.5,1.4c-1,0.7-1,1.1-1.7,1.3s-1.1-0.2-2.3-0.5
	c-1.4-0.4-2.6-0.4-3.4-0.4c-1.3,0-1.2,0.2-2.9,0.2c-1,0-1.2-0.1-1.8,0c-1.2,0.2-1.4,0.7-2.1,0.6c-0.7,0-0.8-0.5-2.3-1.4
	c-1-0.6-1.7-0.8-2.7-1.2c-1.4-0.5-1.8-0.4-2-0.2c-0.1,0.1-0.2,0.2-0.4,1.2c-0.2,0.9-0.3,1.3-0.3,2c-0.1,1-0.1,1.6,0,2.4
	c0.2,0.8,0.5,1,0.4,1.5c-0.1,0.6-0.5,0.7-1.1,1.4s-0.8,1.3-1.1,2.1c-0.2,0.4-0.5,1.3-0.5,3c-0.1,1.2-0.2,3.4,0.7,6.1
	c0.4,1.1,1.1,3.1,3,5c0.6,0.6,1.9,1.9,3.7,2.3c2.2,0.6,2.6,0.6,2.6,0.6c0.6,0.1,1.2,0,1.3,0.3s-0.5,0.5-0.9,1.2
	c-0.4,0.8-0.1,1.3-0.5,1.9c-0.4,0.8-1.4,0.9-2,1c-1.7,0.3-3-0.6-3.4-0.8c-1-0.7-1.8-1.7-2.2-2.4c-0.5-0.7-0.7-1.2-1.4-1.7
	c-0.2-0.1-0.8-0.6-1.6-0.7c-0.5-0.1-2.2,0-1.7,0l0,0c0,0,0.1,0.7,0.3,1.1c0.3,0.6,0.8,0.6,1.4,1c0.5,0.3,0.6,0.7,1.3,1.9
	c1.6,3.2,1.5,3,1.7,3.2c1.4,1.7,3.6,1.9,3.9,1.9C40.2,70.4,41.4,69.3,41.9,69.9z"/>
<path class="st1" d="M51.7,0C34.4,17.2,17.2,34.4,0,51.6C17.1,67.8,34.2,83.9,51.2,100C67.5,84,83.8,68,100,52.1
	C83.9,34.7,67.8,17.4,51.7,0z"/>
</svg>
