<?xml version="1.0" encoding="utf-8"?>
<!-- Generator: Adobe Illustrator 26.0.1, SVG Export Plug-In . SVG Version: 6.00 Build 0)  -->
<svg version="1.1" id="Layer_1" xmlns="http://www.w3.org/2000/svg" xmlns:xlink="http://www.w3.org/1999/xlink" x="0px" y="0px"
	 viewBox="0 0 100 100" style="enable-background:new 0 0 100 100;" xml:space="preserve">
<style type="text/css">
	.st0{fill:#FFFFFF;stroke:#FFFFFF;stroke-miterlimit:10;}
	.st1{fill:none;stroke:#FFFFFF;stroke-miterlimit:10;}
</style>
<image style="display:none;overflow:visible;enable-background:new    ;" width="800" height="800" xlink:href="9A102542.jpeg"  transform="matrix(0.7298 0 0 0.7352 -250.7611 -235.1)">
</image>
<path class="st0" d="M46.1,23.1C30.7,24,19.5,38,21,52.6c1.4,13.5,13.5,24.7,27.8,24.1c14.6-0.6,25.9-13.1,25.7-27.1
	C74.4,34.8,61.5,22.2,46.1,23.1z M41.6,61.7h-5.4V44.2h5.4V61.7z M42,39c-0.1,1.6-1.6,3-3.3,2.9s-3-1.5-3-3.1c0-1.8,1.6-3.3,3.4-3.2
	C40.8,35.7,42.1,37.3,42,39z M62,61.7c-0.2,0.2-0.6,0.2-1.4,0.2c-0.7,0-0.8,0-1.5,0c-1,0-1.2,0-1.2,0c-0.8,0-1,0-1.2-0.2
	c-0.1-0.1-0.1-0.3-0.1-0.7c0-0.8,0-1.2,0-1.4c0.1-0.4,0-0.3,0-2.2c0-0.4,0-1.5,0-2.7c0-1.1,0.1-1.6,0-2.6c0-0.9-0.1-1.3-0.3-1.7
	c-0.1-0.3-0.4-0.9-0.9-1.3c-0.8-0.6-2-0.6-2.8-0.3c-0.9,0.4-1.3,1-1.5,1.3c-0.4,0.7-0.5,1.3-0.6,2.4c-0.1,0.7,0,0.9,0,2.4
	c0,1.4,0,1.3,0,3.1c0,1.5,0,2.2,0,2.3c0.1,0.7,0.3,1.3,0,1.5c-0.1,0.1-0.2,0-0.9,0c-0.3,0-0.7,0-1,0s-0.7,0-1,0c-0.9,0-0.8,0-0.9,0
	c-0.6,0-0.7,0.1-1,0s-0.6-0.2-0.6-0.2v-0.4c0-0.2,0-0.5,0-0.7c0-0.3,0-0.6,0-0.9c0-0.8,0-1.6,0-2.5c0-1,0-2,0-3c0-0.8,0-1.6,0-2.4
	c0-1.9,0-1.9,0-2.4C45,48.1,45,48,45,47c0-0.7,0-1.1,0-1.5c0-0.6,0-1,0.1-1.4c0.7,0,1.3,0,1.7,0s0.9-0.1,1.7-0.1c1,0,1.4,0,1.6,0.2
	c0.1,0.2,0.1,0.3,0.2,0.7c0,0.3,0,0.4,0,0.9c0,0.6,0,0.8,0.1,0.9c0.1,0,0.2-0.4,0.6-0.8c0.2-0.3,0.5-0.4,0.9-0.7
	c0.3-0.2,0.8-0.5,1.4-0.8c1-0.4,1.9-0.4,2.5-0.4c0.8,0,1.6,0,2.6,0.4c0.5,0.2,1.6,0.7,2.4,1.8c0.5,0.7,0.7,1.4,0.9,2.2
	c0.2,0.9,0.3,1.6,0.3,2.1c0.1,0.9,0,1.1,0,2.8c0,1,0,0.8,0,2.3c0,2-0.1,2.1,0,3c0,0.2,0.1,0.8,0.1,1.6C62.2,61.3,62.2,61.5,62,61.7z
	"/>
<path class="st1" d="M50.9-0.3C33.7,16.9,16.4,34.2-0.8,51.4c17.1,16.1,34.2,32.2,51.3,48.4c16.3-16,32.5-32,48.7-47.9
	C83.1,34.4,67,17.1,50.9-0.3z"/>
</svg>
