<?xml version="1.0" encoding="utf-8"?>
<!-- Generator: Adobe Illustrator 26.0.1, SVG Export Plug-In . SVG Version: 6.00 Build 0)  -->
<svg version="1.1" id="Layer_1" xmlns="http://www.w3.org/2000/svg" xmlns:xlink="http://www.w3.org/1999/xlink" x="0px" y="0px"
	 viewBox="0 0 100 100" style="enable-background:new 0 0 100 100;" xml:space="preserve">
<style type="text/css">
	.st0{fill:#FFFFFF;stroke:#FFFFFF;stroke-miterlimit:10;}
</style>
<image style="display:none;overflow:visible;enable-background:new    ;" width="250" height="250" xlink:href="BACF0008.png"  transform="matrix(1.8681 0 0 1.9296 -170.26 -160.5751)">
</image>
<path class="st0" d="M51.2,0C21.6-0.6-1.9,26.2,0.3,54c1.9,24.3,23.4,46.5,50.7,46c27.1-0.4,47.7-22.8,49.1-47.2
	C101.6,25.9,79.5,0.5,51.2,0z M31.5,16.3c0.4-1.6,2-2.5,4.1-3.7c2-1.1,3.2-1.8,4.5-1.4c1.1,0.4,1.3,1.3,2.8,4.2
	c1.7,3.2,1.7,2.5,3.8,6.3c2,3.6,1.5,3.4,2.7,5.3c1.5,2.3,2.4,2.9,2.3,4c-0.2,1.2-1.3,2-3.6,3.5s-3.5,2.3-4.4,2.2
	c-2.3-0.2-2.3-3.5-6.9-10c-0.4-0.5-1.9-2.6-3.6-5.6C31.6,18.2,31.3,17.3,31.5,16.3z M68.1,84.5c-0.2,0.5-0.5,1-1.8,1.7
	c-2.7,1.5-7,2.3-11.3,0.8c-3.6-1.2-5.7-3.5-8-6c-7.3-8.1-10.9-12.1-13.3-15.8c0,0-7.4-11.4-11.1-25.2c-0.1-0.2-1.1-4.2-1.1-9.5
	c0-5.2,0.9-6.5,1.3-7c1.3-1.5,2.4-1.3,5.1-4c1-1,1.4-1.6,2-1.5c1,0.1,1.2,1.9,2.6,4.8c0.9,1.9,0.8,1.2,3.4,5.7c2.3,4,2,4,2.9,5.2
	c1.1,1.3,1.8,1.8,1.8,2.8c0,1.3-1.4,1.8-2.4,3.3c-1,1.6-0.9,3.2-0.8,5.3c0.1,1.1,0.3,4.5,3.3,10.4c1.9,3.7,3.1,6.1,5.8,8.5
	c0.8,0.8,5.8,5.2,8.9,3.8c1-0.4,1.3-1.3,2.1-1.2c1.2,0.1,1.6,2.1,2.7,4.6c1.2,2.6,2.5,4.5,4.4,7.2C67.1,81.8,68.6,83,68.1,84.5z
	 M78.9,80.8c-0.2,0.4-0.4,0.5-3,2c-3.4,1.9-3.7,2-4,2c-1.8-0.1-3-2-4.6-4.6c-1.8-3-1.2-3.2-3.1-6.4c-0.8-1.4-2-3.3-3.7-6.6
	c-0.7-1.4-1.1-2.2-0.8-3.2c0.2-0.6,0.6-0.9,3.2-2.7c2.3-1.6,2.6-1.8,3.2-1.8c0.3,0,1.5,0,3.2,1.8c1.8,1.9,2,3.4,3.1,5.9
	c1.2,2.7,1.5,2.2,4.6,8C79,78.4,79.5,79.7,78.9,80.8z"/>
</svg>
