<?xml version="1.0" encoding="utf-8"?>
<!-- Generator: Adobe Illustrator 26.0.1, SVG Export Plug-In . SVG Version: 6.00 Build 0)  -->
<svg version="1.1" id="Layer_1" xmlns="http://www.w3.org/2000/svg" xmlns:xlink="http://www.w3.org/1999/xlink" x="0px" y="0px"
	 viewBox="0 0 100 100" style="enable-background:new 0 0 100 100;" xml:space="preserve">
<style type="text/css">
	.st0{fill:#FFFFFF;}
	.st1{fill:none;stroke:#FFFFFF;stroke-miterlimit:10;}
</style>
<image style="display:none;overflow:visible;" width="1920" height="1920" xlink:href="twitter-icon.jpg"  transform="matrix(0.5781 0 0 0.5378 -504.96 -469.68)">
</image>
<path class="st0" d="M71.99,29.1c-8.18-8.62-18.54-9.04-20.88-9.07c-12.53-0.16-27.54,8.06-30.95,23.14
	c-2.4,10.62,1.69,21.41,8.41,28.15c10.32,10.35,26.15,10.45,36.96,4.07c3.02-1.78,12.4-8.05,14.57-20.33
	C82.65,40.68,73.15,30.32,71.99,29.1z M66.73,40.46c-0.7,0.8-1.05,1.2-1.1,1.25c-0.71,0.73-1.07,1.09-1.35,1.2
	c-0.18,0.07-0.38,0.12-0.5,0.31c-0.21,0.32-0.03,0.78,0,0.89c0.31,0.93-0.26,3.17-0.65,4.69c-0.93,3.62-2.88,6.42-3.05,6.67
	c-4.16,5.88-10.71,7.38-12.52,7.71c-0.54,0.1-5.76,1.02-11.32-1.15c-1.66-0.64-3.42-1.59-3.36-1.77c0.05-0.14,1.08,0.34,2.65,0.26
	c0.34-0.02,1.08-0.19,2.55-0.52c1.86-0.42,2.12-0.53,2.4-0.68c0.61-0.32,0.67-0.5,1.6-0.99c0.71-0.37,1.07-0.48,1.05-0.63
	c-0.03-0.23-0.95-0.1-2.05-0.42c-1.54-0.44-2.51-1.46-3.1-2.09c-0.62-0.65-1.55-1.84-1.3-2.19c0.13-0.18,0.45-0.01,1.4,0
	c0.27,0,1.46,0.01,1.5-0.21c0.05-0.28-1.79-0.33-3.26-1.72c-0.91-0.87-1.29-1.88-1.8-3.23c-0.22-0.58-0.59-1.6-0.3-1.82
	c0.18-0.14,0.49,0.13,1.35,0.47c0.3,0.12,1.52,0.59,1.65,0.36c0.14-0.24-1.27-0.87-2.1-2.5c-0.78-1.54-0.8-2.94-0.8-3.49
	c0-1.03,0.21-1.63,0.45-2.35c0.19-0.55,0.3-0.7,0.45-0.73c0.37-0.08,0.62,0.66,1.4,1.51c0.16,0.18,0.27,0.28,2.05,1.56
	c1.15,0.83,1.73,1.25,1.9,1.36c1.01,0.61,1.84,0.93,2.65,1.25c1.31,0.51,1.96,0.76,2.85,0.89c1.43,0.2,1.81-0.11,2.85,0.31
	c0.25,0.1,0.72,0.32,0.85,0.16c0.1-0.12-0.05-0.36-0.15-0.73c-0.11-0.43-0.08-0.76,0-1.41c0.24-2.1,1.4-3.6,1.4-3.6
	c1.6-2.07,3.9-2.41,4.51-2.5c1.37-0.2,2.51,0.05,2.95,0.16c0.75,0.17,1.2,0.28,1.75,0.63c0.81,0.51,0.95,0.99,1.65,1.15
	c0.4,0.09,0.72,0.01,1.35-0.16c0.87-0.22,1.59-0.63,1.95-0.83c0.64-0.36,0.91-0.61,1-0.52c0.12,0.12-0.24,0.7-0.55,1.2
	c-0.55,0.9-0.86,1.39-1.45,1.82c-0.54,0.39-1.03,0.52-1,0.63c0.02,0.09,0.42,0.05,0.8,0c0.6-0.07,1.1-0.13,1.8-0.36
	c0.88-0.3,1.34-0.62,1.4-0.52C67.27,39.85,67.09,40.05,66.73,40.46z"/>
<path class="st1" d="M51.46,0.62C34.59,17.77,17.63,35.03,0.76,52.19c16.91,15.96,33.82,31.92,50.73,47.98
	C67.47,84.2,83.36,68.24,99.25,52.38C83.32,35.03,67.39,17.87,51.46,0.62z"/>
</svg>
